<svg xmlns="http://www.w3.org/2000/svg" xmlns:xlink="http://www.w3.org/1999/xlink" width="500" zoomAndPan="magnify" viewBox="0 0 375 374.999991" height="500" preserveAspectRatio="xMidYMid meet" version="1.2"><g id="75dca81285"><rect x="0" width="375" y="0" height="374.999991" style="fill:#ffffff;fill-opacity:1;stroke:none;"/><rect x="0" width="375" y="0" height="374.999991" style="fill:#ffffff;fill-opacity:1;stroke:none;"/><path style=" stroke:none;fill-rule:nonzero;fill:#000000;fill-opacity:1;" d="M 342.476562 164.40625 C 341.390625 157.109375 339.835938 149.96875 337.742188 143.058594 L 362.582031 115.890625 L 353.03125 99.28125 L 343.484375 82.667969 L 310.183594 89.964844 C 305.683594 84.300781 300.714844 78.867188 295.4375 73.898438 L 303.351562 37.878906 L 286.742188 28.332031 L 270.128906 18.785156 L 244.980469 41.683594 C 238.226562 39.042969 231.242188 36.792969 224.097656 35.085938 L 213 0 L 174.652344 0 L 164.328125 32.445312 C 157.03125 33.535156 149.890625 35.085938 142.984375 37.183594 L 115.816406 12.34375 L 82.589844 31.4375 L 89.886719 64.738281 C 84.222656 69.242188 78.789062 74.207031 73.820312 79.488281 L 37.878906 71.648438 L 28.332031 88.257812 L 18.707031 104.792969 L 41.605469 129.941406 C 38.96875 136.695312 36.714844 143.679688 35.007812 150.824219 L 0 161.921875 L 0 200.269531 L 32.445312 210.59375 C 33.535156 217.890625 35.085938 225.03125 37.183594 231.941406 L 12.34375 259.109375 L 21.890625 275.71875 L 31.4375 292.332031 L 64.738281 285.035156 C 69.242188 290.699219 74.207031 296.132812 79.488281 301.101562 L 71.570312 337.121094 L 88.179688 346.667969 L 104.792969 356.214844 L 129.941406 333.316406 C 136.695312 335.957031 143.679688 338.207031 150.824219 339.914062 L 162 375 L 200.269531 375 L 210.59375 342.554688 C 217.890625 341.464844 225.03125 339.914062 231.941406 337.816406 L 259.109375 362.65625 L 275.71875 353.109375 L 292.332031 343.5625 L 285.035156 310.261719 C 290.699219 305.757812 296.132812 300.792969 301.101562 295.511719 L 337.121094 303.429688 L 346.667969 286.820312 L 356.214844 270.207031 L 333.316406 245.058594 C 335.957031 238.304688 338.207031 231.320312 339.914062 224.175781 L 375 213 L 375 174.652344 Z M 53.40625 187.460938 C 53.40625 113.40625 113.410156 53.40625 187.460938 53.40625 C 261.515625 53.40625 321.515625 113.40625 321.515625 187.460938 C 321.515625 261.515625 261.515625 321.515625 187.460938 321.515625 C 113.410156 321.515625 53.40625 261.515625 53.40625 187.460938 Z M 53.40625 187.460938 "/><path style=" stroke:none;fill-rule:nonzero;fill:#000000;fill-opacity:1;" d="M 159.59375 251.5 L 103.394531 195.300781 L 119.460938 179.234375 L 159.59375 219.363281 L 255.460938 123.5 L 271.527344 139.566406 Z M 159.59375 251.5 "/></g></svg>