<svg xmlns="http://www.w3.org/2000/svg" xmlns:xlink="http://www.w3.org/1999/xlink" width="500" zoomAndPan="magnify" viewBox="0 0 375 374.999991" height="500" preserveAspectRatio="xMidYMid meet" version="1.2"><defs><clipPath id="b6b40c6298"><path d="M 375 75 L 375 300 C 375 319.890625 367.097656 338.96875 353.03125 353.03125 C 338.96875 367.097656 319.890625 375 300 375 L 75 375 C 55.109375 375 36.03125 367.097656 21.96875 353.03125 C 7.902344 338.96875 0 319.890625 0 300 L 0 75 C 0 55.109375 7.902344 36.03125 21.96875 21.96875 C 36.03125 7.902344 55.109375 0 75 0 L 300 0 C 319.890625 0 338.96875 7.902344 353.03125 21.96875 C 367.097656 36.03125 375 55.109375 375 75 Z M 375 75 "/></clipPath></defs><g id="5b4eac4bce"><g clip-rule="nonzero" clip-path="url(#b6b40c6298)"><rect x="0" width="375" y="0" height="374.999991" style="fill:#4c5c68;fill-opacity:1;stroke:none;"/></g><g style="fill:#f4f4f4;fill-opacity:1;"><g transform="translate(13.756534, 225.374985)"><path style="stroke:none" d="M 64.1875 -72.78125 L 33.75 -41.578125 L 32.859375 -40.6875 L 14.109375 -21.609375 L 14.109375 -29.109375 L 56.90625 -72.78125 Z M 16.984375 -72.78125 L 16.984375 0 L 11.46875 0 L 11.46875 -72.78125 Z M 34.1875 -45.21875 L 64.953125 0 L 58.234375 0 L 29.78125 -41.90625 Z M 34.1875 -45.21875 "/></g></g><g style="fill:#f4f4f4;fill-opacity:1;"><g transform="translate(78.817667, 225.374985)"><path style="stroke:none" d="M 65.953125 -72.78125 L 65.953125 -26.578125 C 65.953125 -17.535156 63.503906 -10.660156 58.609375 -5.953125 C 53.722656 -1.242188 46.832031 1.109375 37.9375 1.109375 C 29.039062 1.109375 22.128906 -1.242188 17.203125 -5.953125 C 12.273438 -10.660156 9.8125 -17.535156 9.8125 -26.578125 L 9.8125 -72.78125 L 15.328125 -72.78125 L 15.328125 -27.6875 C 15.328125 -19.882812 17.253906 -13.976562 21.109375 -9.96875 C 24.972656 -5.96875 30.582031 -3.96875 37.9375 -3.96875 C 45.289062 -3.96875 50.878906 -5.96875 54.703125 -9.96875 C 58.523438 -13.976562 60.4375 -19.882812 60.4375 -27.6875 L 60.4375 -72.78125 Z M 65.953125 -72.78125 "/></g></g><g style="fill:#f4f4f4;fill-opacity:1;"><g transform="translate(150.384824, 225.374985)"><path style="stroke:none" d="M 66.828125 0 L 60.984375 0 L 51.828125 -22.828125 L 17.09375 -22.828125 L 7.9375 0 L 2.09375 0 L 31.203125 -72.78125 L 37.71875 -72.78125 Z M 19.078125 -27.90625 L 49.84375 -27.90625 L 34.40625 -67.375 Z M 19.078125 -27.90625 "/></g></g><g style="fill:#f4f4f4;fill-opacity:1;"><g transform="translate(217.100041, 225.374985)"><path style="stroke:none" d="M 38.484375 -72.78125 C 45.765625 -72.78125 51.554688 -70.941406 55.859375 -67.265625 C 60.160156 -63.585938 62.3125 -58.550781 62.3125 -52.15625 C 62.3125 -45.757812 60.140625 -40.78125 55.796875 -37.21875 C 51.460938 -33.65625 45.65625 -31.875 38.375 -31.875 L 37.828125 -31.546875 L 16.984375 -31.546875 L 16.984375 0 L 11.46875 0 L 11.46875 -72.78125 Z M 38.375 -36.71875 C 44.257812 -36.71875 48.765625 -38.039062 51.890625 -40.6875 C 55.015625 -43.332031 56.578125 -47.15625 56.578125 -52.15625 C 56.578125 -57.15625 55.015625 -61 51.890625 -63.6875 C 48.765625 -66.375 44.257812 -67.71875 38.375 -67.71875 L 16.984375 -67.71875 L 16.984375 -36.71875 Z M 42.671875 -35.734375 L 66.171875 0 L 59.65625 0 L 38.046875 -32.640625 Z M 42.671875 -35.734375 "/></g></g><g style="fill:#f4f4f4;fill-opacity:1;"><g transform="translate(285.469376, 225.374985)"><path style="stroke:none" d="M 65.953125 -72.78125 L 65.953125 -26.578125 C 65.953125 -17.535156 63.503906 -10.660156 58.609375 -5.953125 C 53.722656 -1.242188 46.832031 1.109375 37.9375 1.109375 C 29.039062 1.109375 22.128906 -1.242188 17.203125 -5.953125 C 12.273438 -10.660156 9.8125 -17.535156 9.8125 -26.578125 L 9.8125 -72.78125 L 15.328125 -72.78125 L 15.328125 -27.6875 C 15.328125 -19.882812 17.253906 -13.976562 21.109375 -9.96875 C 24.972656 -5.96875 30.582031 -3.96875 37.9375 -3.96875 C 45.289062 -3.96875 50.878906 -5.96875 54.703125 -9.96875 C 58.523438 -13.976562 60.4375 -19.882812 60.4375 -27.6875 L 60.4375 -72.78125 Z M 65.953125 -72.78125 "/></g></g></g></svg>