<svg xmlns="http://www.w3.org/2000/svg" xmlns:xlink="http://www.w3.org/1999/xlink" width="500" zoomAndPan="magnify" viewBox="0 0 375 374.999991" height="500" preserveAspectRatio="xMidYMid meet" version="1.2"><defs><clipPath id="0213d2241e"><path d="M 375 75 L 375 300 C 375 319.890625 367.097656 338.96875 353.03125 353.03125 C 338.96875 367.097656 319.890625 375 300 375 L 75 375 C 55.109375 375 36.03125 367.097656 21.96875 353.03125 C 7.902344 338.96875 0 319.890625 0 300 L 0 75 C 0 55.109375 7.902344 36.03125 21.96875 21.96875 C 36.03125 7.902344 55.109375 0 75 0 L 300 0 C 319.890625 0 338.96875 7.902344 353.03125 21.96875 C 367.097656 36.03125 375 55.109375 375 75 Z M 375 75 "/></clipPath></defs><g id="6fdf857f56"><g clip-rule="nonzero" clip-path="url(#0213d2241e)"><rect x="0" width="375" y="0" height="374.999991" style="fill:#4c5c68;fill-opacity:1;stroke:none;"/></g><g style="fill:#f4f4f4;fill-opacity:1;"><g transform="translate(5.869815, 225.374985)"><path style="stroke:none" d="M 68.921875 -72.78125 L 37.171875 -40.25 L 35.84375 -38.8125 L 16.328125 -18.859375 L 16.328125 -30.765625 L 57.34375 -72.78125 Z M 20.734375 -72.78125 L 20.734375 0 L 11.90625 0 L 11.90625 -72.78125 Z M 38.046875 -45.875 L 69.25 0 L 58.671875 0 L 30.765625 -40.921875 Z M 38.046875 -45.875 "/></g></g><g style="fill:#f4f4f4;fill-opacity:1;"><g transform="translate(76.003531, 225.374985)"><path style="stroke:none" d="M 67.609375 -72.78125 L 67.609375 -27.125 C 67.609375 -17.789062 65.144531 -10.75 60.21875 -6 C 55.289062 -1.257812 48.234375 1.109375 39.046875 1.109375 C 29.921875 1.109375 22.878906 -1.257812 17.921875 -6 C 12.960938 -10.75 10.484375 -17.789062 10.484375 -27.125 L 10.484375 -72.78125 L 19.296875 -72.78125 L 19.296875 -29.328125 C 19.296875 -21.753906 20.894531 -16.164062 24.09375 -12.5625 C 27.289062 -8.96875 32.273438 -7.171875 39.046875 -7.171875 C 45.804688 -7.171875 50.785156 -8.96875 53.984375 -12.5625 C 57.179688 -16.164062 58.78125 -21.753906 58.78125 -29.328125 L 58.78125 -72.78125 Z M 67.609375 -72.78125 "/></g></g><g style="fill:#f4f4f4;fill-opacity:1;"><g transform="translate(149.335012, 225.374985)"><path style="stroke:none" d="M 69.921875 0 L 60.546875 0 L 52.828125 -20.1875 L 19.84375 -20.1875 L 12.125 0 L 2.875 0 L 31.203125 -72.78125 L 41.6875 -72.78125 Z M 23.046875 -28.453125 L 49.625 -28.453125 L 36.28125 -64.296875 Z M 23.046875 -28.453125 "/></g></g><g style="fill:#f4f4f4;fill-opacity:1;"><g transform="translate(219.909817, 225.374985)"><path style="stroke:none" d="M 39.484375 -72.78125 C 46.910156 -72.78125 52.863281 -70.867188 57.34375 -67.046875 C 61.832031 -63.222656 64.078125 -58.039062 64.078125 -51.5 C 64.078125 -44.957031 61.816406 -39.863281 57.296875 -36.21875 C 52.773438 -32.582031 46.800781 -30.765625 39.375 -30.765625 L 38.59375 -30.21875 L 20.734375 -30.21875 L 20.734375 0 L 11.90625 0 L 11.90625 -72.78125 Z M 39.375 -38.484375 C 44.59375 -38.484375 48.46875 -39.566406 51 -41.734375 C 53.539062 -43.910156 54.8125 -47.164062 54.8125 -51.5 C 54.8125 -55.84375 53.539062 -59.097656 51 -61.265625 C 48.46875 -63.429688 44.59375 -64.515625 39.375 -64.515625 L 20.734375 -64.515625 L 20.734375 -38.484375 Z M 44.4375 -36.71875 L 68.484375 0 L 58.015625 0 L 37.046875 -31.875 Z M 44.4375 -36.71875 "/></g></g><g style="fill:#f4f4f4;fill-opacity:1;"><g transform="translate(291.035988, 225.374985)"><path style="stroke:none" d="M 67.609375 -72.78125 L 67.609375 -27.125 C 67.609375 -17.789062 65.144531 -10.75 60.21875 -6 C 55.289062 -1.257812 48.234375 1.109375 39.046875 1.109375 C 29.921875 1.109375 22.878906 -1.257812 17.921875 -6 C 12.960938 -10.75 10.484375 -17.789062 10.484375 -27.125 L 10.484375 -72.78125 L 19.296875 -72.78125 L 19.296875 -29.328125 C 19.296875 -21.753906 20.894531 -16.164062 24.09375 -12.5625 C 27.289062 -8.96875 32.273438 -7.171875 39.046875 -7.171875 C 45.804688 -7.171875 50.785156 -8.96875 53.984375 -12.5625 C 57.179688 -16.164062 58.78125 -21.753906 58.78125 -29.328125 L 58.78125 -72.78125 Z M 67.609375 -72.78125 "/></g></g></g></svg>