<?xml version="1.0" encoding="UTF-8" standalone="no"?>
<!-- Created with Inkscape (http://www.inkscape.org/) -->

<svg
   version="1.1"
   id="svg198"
   width="499.99994"
   height="499.99997"
   viewBox="0 0 499.99994 499.99997"
   xmlns="http://www.w3.org/2000/svg"
   xmlns:svg="http://www.w3.org/2000/svg">
  <defs
     id="defs202">
    <clipPath
       clipPathUnits="userSpaceOnUse"
       id="clipPath240">
      <path
         d="M 0,0 H 1562.5 V 1562.5 H 0 Z"
         id="path238" />
    </clipPath>
    <clipPath
       clipPathUnits="userSpaceOnUse"
       id="clipPath246">
      <path
         d="M 0,0 H 1562.5 V 1562.5 H 0 Z"
         id="path244" />
    </clipPath>
    <clipPath
       clipPathUnits="userSpaceOnUse"
       id="clipPath252">
      <path
         d="M 0,0 H 1562.5 V 1562.5 H 0 Z"
         id="path250" />
    </clipPath>
    <clipPath
       clipPathUnits="userSpaceOnUse"
       id="clipPath258">
      <path
         d="M 781.25,0 C 349.77753,0 0,349.77753 0,781.25 c 0,431.4724 349.77753,781.25 781.25,781.25 431.4724,0 781.25,-349.7776 781.25,-781.25 C 1562.5,349.77753 1212.7224,0 781.25,0 Z"
         id="path256" />
    </clipPath>
    <clipPath
       clipPathUnits="userSpaceOnUse"
       id="clipPath270">
      <path
         d="M 0,0 H 1562.5 V 1562.5 H 0 Z"
         clip-rule="evenodd"
         id="path268" />
    </clipPath>
  </defs>
  <g
     id="g206"
     transform="matrix(1.3333333,0,0,-1.3333333,0,510.71996)">
    <g
       id="g234"
       transform="matrix(0.23999999,0,0,-0.23999999,0,383.03998)">
      <g
         id="g236"
         clip-path="url(#clipPath240)">
        <g
           id="g242"
           clip-path="url(#clipPath246)">
          <g
             id="g248"
             clip-path="url(#clipPath252)">
            <g
               id="g254"
               clip-path="url(#clipPath258)">
              <g
                 id="g260"
                 transform="scale(1.4467592)">
                <path
                   d="M 0,0 H 1080 V 1080 H 0 Z"
                   style="fill:#4c5c68;fill-opacity:1;fill-rule:nonzero;stroke:none"
                   id="path262" />
              </g>
            </g>
          </g>
        </g>
      </g>
    </g>
    <g
       id="g264"
       transform="matrix(0.23999999,0,0,-0.23999999,0,383.03998)">
      <g
         id="g266"
         clip-path="url(#clipPath270)">
        <g
           id="g272"
           transform="matrix(3.125,0,0,3.125,2.2975938,460.9375)">
          <text
             xml:space="preserve"
             transform="translate(8.78125,153)"
             style="font-variant:normal;font-weight:300;font-size:147.04px;font-family:WorkSans;-inkscape-font-specification:WorkSans-Light;writing-mode:lr-tb;fill:#f4f4f4;fill-opacity:1;fill-rule:nonzero;stroke:none"
             id="text276"><tspan
               x="0 91.159561 190.99382 284.35883 379.92932"
               y="0"
               id="tspan274">KUARU</tspan></text>
        </g>
      </g>
    </g>
  </g>
</svg>
