<?xml version="1.0" encoding="UTF-8" standalone="no"?>
<!-- Created with Inkscape (http://www.inkscape.org/) -->

<svg
   width="132.29166mm"
   height="132.29166mm"
   viewBox="0 0 132.29166 132.29166"
   version="1.1"
   id="svg5"
   xml:space="preserve"
   xmlns="http://www.w3.org/2000/svg"
   xmlns:svg="http://www.w3.org/2000/svg"><defs
     id="defs2"><clipPath
       clipPathUnits="userSpaceOnUse"
       id="clipPath216"><path
         d="M 0,0 H 1562.5 V 1562.5 H 0 Z"
         clip-rule="evenodd"
         id="path214" /></clipPath><clipPath
       clipPathUnits="userSpaceOnUse"
       id="clipPath228"><path
         d="M 0,0 H 1562.5 V 1562.5 H 0 Z"
         clip-rule="evenodd"
         id="path226" /></clipPath><clipPath
       clipPathUnits="userSpaceOnUse"
       id="clipPath240"><path
         d="M 0,0 H 1562.5 V 1562.5 H 0 Z"
         id="path238" /></clipPath><clipPath
       clipPathUnits="userSpaceOnUse"
       id="clipPath246"><path
         d="M 0,0 H 1562.5 V 1562.5 H 0 Z"
         id="path244" /></clipPath><clipPath
       clipPathUnits="userSpaceOnUse"
       id="clipPath252"><path
         d="M 0,0 H 1562.5 V 1562.5 H 0 Z"
         id="path250" /></clipPath><clipPath
       clipPathUnits="userSpaceOnUse"
       id="clipPath258"><path
         d="M 781.25,0 C 349.77753,0 0,349.77753 0,781.25 c 0,431.4724 349.77753,781.25 781.25,781.25 431.4724,0 781.25,-349.7776 781.25,-781.25 C 1562.5,349.77753 1212.7224,0 781.25,0 Z"
         id="path256" /></clipPath><clipPath
       clipPathUnits="userSpaceOnUse"
       id="clipPath270"><path
         d="M 0,0 H 1562.5 V 1562.5 H 0 Z"
         id="path268" /></clipPath><clipPath
       clipPathUnits="userSpaceOnUse"
       id="clipPath276"><path
         d="M 0,0 H 1562.5 V 1562.5 H 0 Z"
         id="path274" /></clipPath><clipPath
       clipPathUnits="userSpaceOnUse"
       id="clipPath282"><path
         d="M 941.24615,-2.502939e-4 1498.3648,1040.6433 504.89697,1572.5059 -52.221558,531.86224 Z"
         id="path280" /></clipPath><clipPath
       clipPathUnits="userSpaceOnUse"
       id="clipPath288"><path
         d="M 941.24615,-2.502939e-4 1498.3648,1040.6433 504.89697,1572.5059 -52.221558,531.86224 Z"
         id="path286" /></clipPath><clipPath
       clipPathUnits="userSpaceOnUse"
       id="clipPath360"><path
         d="M 0,0 H 1562.5 V 1562.5 H 0 Z"
         id="path358" /></clipPath><clipPath
       clipPathUnits="userSpaceOnUse"
       id="clipPath366"><path
         d="M 0,0 H 1562.5 V 1562.5 H 0 Z"
         id="path364" /></clipPath><clipPath
       clipPathUnits="userSpaceOnUse"
       id="clipPath372"><path
         d="m 843.86548,1300.7659 71.4317,-399.72171 433.80662,77.52277 -71.4318,399.72174 z"
         id="path370" /></clipPath><clipPath
       clipPathUnits="userSpaceOnUse"
       id="clipPath378"><path
         d="m 843.86548,1300.7659 71.4317,-399.72171 433.80662,77.52277 -71.4318,399.72174 z"
         id="path376" /></clipPath><clipPath
       clipPathUnits="userSpaceOnUse"
       id="clipPath390"><path
         d="M 0,0 H 1562.5 V 1562.5 H 0 Z"
         clip-rule="evenodd"
         id="path388" /></clipPath></defs><g
     id="g208"
     transform="scale(0.08466666)"><g
       id="g210"><g
         id="g212"
         clip-path="url(#clipPath216)"><g
           id="g218"
           transform="scale(3.125)"><path
             d="M 0,0 H 500 V 500 H 0 Z"
             style="fill:#ffffff;fill-opacity:1;fill-rule:nonzero;stroke:none"
             id="path220" /></g></g></g><g
       id="g222"><g
         id="g224"
         clip-path="url(#clipPath228)"><g
           id="g230"
           transform="scale(3.125)"><path
             d="M 0,0 H 500 V 500 H 0 Z"
             style="fill:#ffffff;fill-opacity:1;fill-rule:nonzero;stroke:none"
             id="path232" /></g></g></g><g
       id="g234"><g
         id="g236"
         clip-path="url(#clipPath240)"><g
           id="g242"
           clip-path="url(#clipPath246)"><g
             id="g248"
             clip-path="url(#clipPath252)"><g
               id="g254"
               clip-path="url(#clipPath258)"><g
                 id="g260"
                 transform="scale(1.4467592)"><path
                   d="M 0,0 H 1080 V 1080 H 0 Z"
                   style="fill:#4c5c68;fill-opacity:1;fill-rule:nonzero;stroke:none"
                   id="path262" /></g></g></g></g></g></g><g
       id="g264"><g
         id="g266"
         clip-path="url(#clipPath270)"><g
           id="g272"
           clip-path="url(#clipPath276)"><g
             id="g278"
             clip-path="url(#clipPath282)"><g
               id="g284"
               clip-path="url(#clipPath288)"><g
                 id="g290"
                 transform="matrix(0.61757952,1.1535789,-1.1535789,0.61757952,1025.8512,-175.90456)"><path
                   d="m 140.25,469.35001 c 1.67,-1.35999 1.57001,15.07 0.91,32.11001 -0.74,8.53 0.07,17.21997 0.27001,24 0.19999,6.78003 0.30999,11.51001 0.33,12.15998 -1.34,8.61999 3,32 4.42999,45.29998 0.84,6.65998 2.22,10.59003 1.36,9.08002 -0.90625,-2.24487 -1.63958,-4.54486 -2.19999,-6.90002 -0.78,-4 -1.91001,-9.90998 -3.48,-18 -1.92,-10 -4.67,-20.34998 -4.44,-29.09998 0,-1.20001 -0.47,-5.79999 -1.06,-12.13 -0.39,-6.32001 -1.78999,-14.38001 -1.11,-22.44001 C 136,487.31 136.64,471.17001 140.25,469.35001 Z"
                   style="fill:#8e735b;fill-opacity:1;fill-rule:evenodd;stroke:none"
                   id="path292" /><path
                   d="m 363.59,843.89001 c -1.23999,-5.65997 39.89999,13.41999 11.64001,4.88001 C 373.54999,848.23999 364,845.72998 363.59,843.89001 Z"
                   style="fill:#8e735b;fill-opacity:1;fill-rule:evenodd;stroke:none"
                   id="path294" /><path
                   d="m 122.68,631.56 c 3.23,11.94 8.07999,23.64001 12.66,35.54999 2.11,6 5.19,11.71002 8.25999,17.41998 l 9.05,17.27002 4.48,8.73999 c 1.60001,2.85998 3.47,5.58002 5.17,8.40002 3.46,5.60004 6.83999,11.29004 10.14,17.07001 6.07,11.92999 14,22.69 20.38,34.92999 8.59,15.71997 -4.61,10.94 -0.5,19.65998 7.19,12.51001 16.42,25.82 28.23,37.58001 6.07001,5.71997 12.49,11.34998 19.11,16.90003 3.35,2.71997 6.57001,5.65002 10.14,8.14001 l 10.94,7.20001 22,14 c 7.54999,4.16999 15.23001,7.91999 22.57001,11.87 14.44,8.33002 29.17001,14.33002 41.89001,21.40002 4.13001,2.06 8.56,7.47998 14,11.94001 5.32999,4.67999 11.14002,9.71002 16.85999,12.78997 17.45001,10.29999 37.07,14.54999 56.64999,19.83002 10,1.89002 20.17001,3.15997 30.45999,4.82001 l 15.60001,2.41998 16,1.46002 16.79001,1.59998 c 5.88519,0.68445 11.78851,0.92779 17.71002,0.72998 12.09998,-0.21997 24.76001,-0.57001 37.83002,-1.15003 l 40.07,-5.64001 c 13.62,-2.40997 27.25,-6.47998 41.26001,-9.84003 55.47998,-15.76001 111.07001,-43.70001 159,-78.44 11.46003,-7.59003 16.39002,-11.73999 17.78003,-12.07001 1.39002,-0.33001 -1,2.90003 -6,8 -5.21997,4.76001 -13,11.37 -21.67999,18.46997 -4.38,3.48999 -8.84003,7.34003 -13.59998,10.72998 l -14.52001,9.34003 c -69.16999,44.09998 -142,65.20001 -213,67.31 -17.75654,0.58185 -35.47931,0.0469 -53.16849,-1.60468 -17.68912,-1.65161 -35.20459,-4.40692 -52.54648,-8.26587 -17.34189,-3.85907 -34.37296,-8.79119 -51.09326,-14.79644 -16.72031,-6.00537 -32.99756,-13.03638 -48.83179,-21.09302 -0.66,-0.35999 -15.70001,-7.79999 -30.45001,-14.65997 -7.53,-3.15003 -14.32999,-7.41999 -19.60001,-9.94001 -5.27002,-2.52002 -8.70001,-3.90002 -8.67001,-2.72998 0,1.43 5,5.60999 12.79001,11.26001 4.41217,3.26996 9.05884,6.16327 13.94,8.68 l 17,9.21997 c 11.64999,6.77002 24.82001,11.71002 36.11002,16.33001 l 15.36999,6.21997 c 4.48001,1.84998 8.44,2.73999 11.20001,3.73999 55.58002,19.93 123.10999,28 187.83002,20.06 64.84003,-7.45001 125.59998,-30.29999 172.31,-57.26001 43.81,-24.27002 79.88,-55.26001 110.88,-87.53003 31.46997,-32.16998 54.87,-68.55999 74.38001,-105.20001 l 13,-28.13 c 2.18951,-4.63251 4.04278,-9.39576 5.55987,-14.28986 l 4.94001,-14.46002 c 7.15002,-19 11,-38.89002 15,-58.47998 l 1.45001,-7.34003 0.79999,-7.46997 1.46997,-14.90997 1.28003,-14.89002 c 0.54303,-4.95697 0.71966,-9.92694 0.53002,-14.90997 -0.52001,-20 -0.52001,-39.82001 -4.46002,-59.54999 -0.76001,-4.67999 -1.94,-10 -3.45001,-15.73001 l -2.52002,-8.82001 c -1.10998,-3 -2.44,-6 -3.76001,-9.10998 -5.45001,-12.26999 -11.53003,-25 -18.40997,-36.07999 -3.92999,-5.64999 -9.71002,-17.91 -17.70001,-25.92001 -7.98999,-8.01001 -18.08002,-11.51999 -31.07001,-1.41001 -2.64002,2 -1.40003,8.46 2.19,17.54999 3.59003,9.09 9.95001,20.88001 14.75,34.32001 2.71997,6.73001 5.54999,13.69 8.34003,20.60001 2.79004,6.91 4.44,14.13 6.56,21 3.89001,13.64999 7.32,26.26998 7.32,35.06997 0.57001,14.71997 2.16999,29.78003 0.60999,44.38001 -1,14.65002 -1.56,29.26001 -4.63001,42.83001 -4.21002,27.59998 -12.65997,51.89002 -20.29998,70.73999 -8.08002,16.40003 -15,33.28998 -24.81,48.56 -4.67999,7.75 -8.91999,15.75 -13.92999,23.23999 l -15.65998,22 c -2.65997,3.62 -5.09997,7.39002 -7.91998,10.87 l -8.75,10.16998 -17.46002,20.28003 L 815.67999,831 c -6.35998,6.16998 -12.65997,12.38 -19.78003,17.59998 C 741.53998,893.46002 677.17999,924 611.62,936.41998 c -62.87,11.81 -128.66999,6.20002 -190.53,-14.26001 -7.69001,-2.72998 -15.60001,-4.77002 -23.12,-8.10998 l -22.57999,-10 -11.27999,-5.09003 -10.87,-6.13 c -7.19998,-4.08667 -14.45334,-8.19666 -21.76001,-12.33002 -28,-18.42999 -55.53,-38.67999 -79.54001,-64 -5.14999,-5.35999 -10.63,-10.42999 -15.63,-16.06 l -14.52001,-17.53998 c -10.28999,-11.27002 -18.3,-24.65997 -27.38,-37.30999 -4.74001,-6.20002 -8.26,-13.28998 -12.19,-20.13001 -3.93001,-6.84003 -7.80001,-13.72998 -11.73,-20.65997 -3.24666,-7.26666 -6.52,-14.57337 -9.82001,-21.91999 -3.14999,-7.39001 -7,-14.47998 -9.25999,-22.33001 -22.10001,-60.76001 -32.17,-128.60999 -23.77001,-195.63001 4.68,-43.83999 19.85001,-91.66998 43.27001,-136.07 23.28,-44.59 54.71001,-85.51999 88.74,-120.18 5.47001,-6.64999 13.04999,-11.77 20,-17.69999 7.23001,-5.57001 14,-11.88001 21.42002,-16.34 14.5,-9.46001 26.39001,-19.39 32.92999,-26.47 1.45999,-1.79 -2.23999,-0.51 -8.94,2.47999 -6.4,3.55001 -15.51001,9.28 -25.4,15.31 -10.20001,5.62 -19.70001,13.7 -28.51999,19.74001 -8.81997,6.04001 -16.30999,11 -20.33,13.41 l -20.58,19 c -6.89999,6.39999 -12.72,14 -19.19,21 l -9.51,10.78 c -3.08999,3.67999 -5.72,7.74001 -8.61999,11.61 -5.60001,7.88001 -11.51,15.62 -16.92,23.75 -20.92999,33.07001 -37.50999,69.56 -49.67,107.84 -11.23999,38.61001 -17.05999,78.85 -18.27,119.22 0.0301,40.34784 4.90681,80.10119 14.62998,119.26001 z m 58.18,-345.88001 c 2.72,-0.39001 0.71001,13.85999 -2.85001,14.38001 -2.84999,0.51001 -0.76998,-13.87 2.85001,-14.38001 z M 171,304 c 0,0 -1.31,16.66 -4.32001,17.17999 C 166.31,321.35001 160.07001,306 171,304 Z m -12.38001,24.76001 c 2.65,-0.64999 2.65,10.61999 0,11.29999 -2.64999,0.67999 -2.75,-10.57999 -0.05,-11.29999 z M 149.16,351 c 2.69001,-0.76001 2.74001,10.20001 0.42,11.17999 -1.28,0.44001 -2.17999,-2.16 -2.42,-5 -0.08,-2.75998 0.65,-5.73999 2,-6.17999 z m -28.24,95.89999 c 6.08,-3.67999 -3,41.23001 -1.17,10.29001 0.08,-1.33999 -0.01,-9.58999 1.17,-10.29001 z m -6.31,79.30002 c 1.92,-1.73999 6,5.56 4.93,6.57001 -1.91,1.79999 -6.04,-5.53003 -4.93,-6.57001 z m 45.75999,177.07001 c 25.93,44.13 54.18,82.17999 83.25001,117.58997 6.16,5.23999 10.08,8 16.51,13.47998 18,13.15002 16.54999,15 8.82999,11.33001 -8,-3.28998 -20.78,-14.28003 -25.33999,-24.80999 -37.44001,-33.52002 -69.24,-75.19001 -83.25001,-117.58997 -16.87999,-20.53003 6.42,-16.21002 0,0 z m 115.42002,152.23999 c 0.29001,2.84003 7.5,4.59998 14.57001,6.47998 7.26001,1.63001 14.70001,2.89001 15.32998,6.63001 -4.88901,0.0513 -9.73898,-0.35865 -14.54999,-1.22999 -7.30001,-1.67004 -14.66,-5.57 -15.35,-11.88 z m 32,24.13 c -0.65,-3.75 12.17999,3.15998 20.72,7.66999 8.76001,4.08001 12.42001,7.79999 -7.92001,-0.77002 -1.91001,-0.92999 -12.38999,-4.82996 -12.81,-6.89997 h 0.01 z m 34.32001,21.19001 c -0.81,-2.79999 14,-1.91999 15.07998,1.66998 0.95999,2.89001 -13.97,1.96002 -15.08999,-1.66998 h 0.01 z m 29.32,15.84002 c -2.70999,-6.72998 42.63001,11.69001 10.56,3.34998 C 380.59,919.65997 372,918 371.42001,916.66998 l 0.01,6e-5 z m 37.93,15.39002 c -3.43,-6.48999 58.72,10.69 14.52999,3.14001 -2.14001,-0.37005 -13.57,-1.20007 -14.54,-3.14007 l 0.01,6e-5 z M 460,945.25 c -2.04999,-3.17999 12.85001,-1.67999 22.70999,-0.37 5,0.34998 8.67001,0.90003 8.31,1.43 -0.35001,0.27002 -4.87,1.56 -16.14999,0.65002 C 472.67001,946.78998 461.17999,947 460,945.25 Z M 840.53998,838.84003 c -2.92999,-0.18 2.04999,-11.38001 5,-11.23999 2.95001,0.14001 -1.98999,11.39996 -5,11.23999 z M 856.38,821.77002 c -2.67999,0 0.08,-8.78003 1.65003,-8.81 2.72998,-0.09 -0.03,8.75995 -1.65003,8.81 z"
                   style="fill:#8e735b;fill-opacity:1;fill-rule:evenodd;stroke:none"
                   id="path296" /><path
                   d="m 145,600 c 2.67,-3.09998 8.2,24.23999 19,52 1.24,3.5 2.32001,7.09998 3.67,10.56 1.55,3.38 3.08,6.73999 4.58,10 l 8.33,18.44 c 2.02254,4.79504 4.39255,9.41168 7.11,13.84998 l 4.06,7.15997 c 3.78636,6.66443 8.06303,12.99774 12.83,19 4.45,4.92999 8.24001,9 10.74001,12.57001 4.69,6.72998 6.14999,12.32 8.22999,17.30999 2.32001,4.76001 5.51,8.73999 12.93001,12.33002 -2.25999,-1.13 -7,-24.29999 10.85001,-1.5 0.75,0.82001 3.17,16.19 8.67001,14.41998 -9.42,3 -19.08,-4.94 -28,-14.79998 -2.22,-2.48999 -4.39,-5.08002 -6.44,-7.72998 l -5.17,-8.43 c -3.27,-5.46002 -6.17,-10.44 -8.67,-14 -2.50999,-3.71002 -5.33,-7.32 -7.67999,-11.28998 l -6.73,-12.22998 c -4.3,-8.27002 -9.35,-16 -12.77,-24.19 -3.42,-8.19 -6.74001,-15.79999 -9.69,-22.72998 -1.45,-3.45001 -3,-6.63 -4.15,-9.69 l -2.83,-8.54999 c -1.47,-4.34003 -7.93001,-15.31 -13.56,-26.34003 C 145.86,614.81 142.38,603.44 145,600 Z"
                   style="fill:#8e735b;fill-opacity:1;fill-rule:evenodd;stroke:none"
                   id="path298" /><path
                   d="m 388.51001,858.34003 c -2,-6.68 49.28,13.57 12.16,3.77002 -1.79001,-0.47004 -11.57,-1.89008 -12.16,-3.77002 z"
                   style="fill:#8e735b;fill-opacity:1;fill-rule:evenodd;stroke:none"
                   id="path300" /><path
                   d="m 417.79001,871.76001 c 2.28,4.94 26.26001,-5 29.06,1.64001 -4.08036,1.54767 -8.27704,2.6543 -12.59,3.32001 -6.68002,0.97998 -14.19,0.52997 -16.47,-4.96002 z"
                   style="fill:#8e735b;fill-opacity:1;fill-rule:evenodd;stroke:none"
                   id="path302" /><path
                   d="m 354.67001,863.69 c -0.35998,-1.53003 -5.42001,-5 -12.92001,-9.56 -7.14001,-5.25 -16.67001,-11.67999 -26.67999,-18 -19.31,-13.84002 -39.51999,-29.07 -46.60999,-34.21002 10,6.18 -3.56,-2.07 -14.78,-7.88 -5.75999,-2.73999 -10.16999,-5.62 -11.11,-5 -0.94,0.61999 1.67,4.72998 12.51,13.19 L 270.76001,815 c 7.66,2.33002 14,4.09998 17.69,6.56 3.84,2.29999 5.60999,4.59002 5.45999,5.90002 -0.14999,1.31 -2.23001,1.63001 -6.19,0 -2.57065,-1.14898 -5.01065,-2.52899 -7.32001,-4.14001 -3.59164,-2.31574 -6.80496,-5.07239 -9.64001,-8.27002 0.44199,2.91601 1.48889,5.59576 3.14065,8.03918 1.65174,2.44342 3.7482,4.4137 6.28937,5.91083 4.23001,2.54999 9,3.51001 13.32001,4.16998 8.75,1.21997 15.25,1.75 14,11.76001 0.45001,-3.73999 -9,-0.72998 -8.13001,0.16999 10.25,10.27002 16.64002,6.39001 30,16.52002 0,-4.54999 6.29001,-1.16999 13,1.09002 6.71,2.26001 13.24,4.82996 12.29001,0.97998 z M 310.5,846.56 c -1,-6.90998 36.56,17.71002 9,4.81 -1.22,-0.54999 -8.79999,-3.47999 -9,-4.81 z"
                   style="fill:#8e735b;fill-opacity:1;fill-rule:evenodd;stroke:none"
                   id="path304" /><path
                   d="m 349.75,124.9 c 0,0 -11,13.51 -13.73999,12.27 -0.38001,-0.05 3.59998,-16.62 13.73999,-12.27 z"
                   style="fill:#8e735b;fill-opacity:1;fill-rule:evenodd;stroke:none"
                   id="path306" /><path
                   d="m 321.35999,140.08 c 1.26001,0.49001 0.6,2.41 -0.53,4.13001 -1.06,1.88 -2.57001,3.58999 -3.28,3.33999 -2.47,-0.79001 2.21002,-8.24 3.81,-7.47 z"
                   style="fill:#8e735b;fill-opacity:1;fill-rule:evenodd;stroke:none"
                   id="path308" /><path
                   d="m 250.8,199.05 c 2.22219,-5.98394 5.67552,-11.14395 10.36,-15.47999 3.15,-2.83 5.54001,-3.63001 6.45002,-2.93 0.91,0.70002 0.38,2.91001 -2.26001,6.05001 -2.64002,3.14 -7.67002,6.88998 -14.55001,12.35998 z"
                   style="fill:#8e735b;fill-opacity:1;fill-rule:evenodd;stroke:none"
                   id="path310" /><path
                   d="m 871.78003,434.79001 c -6.83002,-11.10999 -10.51001,5.17999 -9.46997,-16.17001 0.16998,-3.54001 6.78003,7.39999 11.38,16 1.586,2.7723 2.70264,5.72232 3.34998,8.85 -0.19006,0.85001 -1.04004,-1.47 -5.26001,-8.67999 z"
                   style="fill:#8e735b;fill-opacity:1;fill-rule:evenodd;stroke:none"
                   id="path312" /><path
                   d="m 887.59998,469.32001 c -16.29999,-14.06 -0.34998,-30.16001 0,0 z"
                   style="fill:#8e735b;fill-opacity:1;fill-rule:evenodd;stroke:none"
                   id="path314" /><path
                   d="m 875.72998,418 c -20,-7 14.15997,5 0,0 z"
                   style="fill:#8e735b;fill-opacity:1;fill-rule:evenodd;stroke:none"
                   id="path316" /><path
                   d="m 358.85999,879.62 c -8.39002,-6.58002 -30.07001,-6.31 -29.47001,-18 6.10999,6.66998 21.31,8.64001 30.36002,10.91998 9.14001,2.08002 13.25,3.69 -0.89001,7.08002 z"
                   style="fill:#8e735b;fill-opacity:1;fill-rule:evenodd;stroke:none"
                   id="path318" /><path
                   d="m 887.59998,469.32001 c 7.90997,7.32998 6.78002,15.23001 4.72998,17 -2.32996,1.88998 -5.57996,-1.94001 -4.72998,-17 z"
                   style="fill:#8e735b;fill-opacity:1;fill-rule:evenodd;stroke:none"
                   id="path320" /><path
                   d="m 912.72998,438.92999 c 3.33331,7.88001 6.57001,15.97669 9.71002,24.29001 1.62927,4.11606 2.90259,8.33939 3.82001,12.67001 l 3.08002,13 c 4.72998,17.5 5.77002,35.64002 7,54.21003 0.23999,36.85998 -4.06,75.5 -17.10999,112 L 914.78003,669 909,682.34003 c -4,8.86999 -7.58002,18 -12.15997,26.65997 -9.68,17 -19,34.39001 -31.14002,50 -10.85998,16.51001 -24.72998,30.65997 -37.59002,45.58002 -7,6.92999 -14.32001,13.54998 -21.45002,20.34002 -3.63,3.31 -7.07,6.85999 -10.85998,10 l -11.64002,9.06 c -30.42999,25.32001 -66.54998,44.70001 -104,59.48999 l -28.52002,10 c -9.65002,2.77002 -19.53003,4.72998 -29.23999,7.07001 l -14.58001,3.31 -14.79999,1.83001 c -9.84998,1.09998 -19.60999,2.46003 -29.34998,3.19001 -19.59997,-0.07 -38.88,1.22998 -57.66998,-1.58002 -9.38,-1.19 -18.72,-1.52002 -27.76001,-3.5 L 451.53,917.97003 c -8.82999,-1.57001 -17.13001,-5 -25.42001,-7.60998 -8.21,-2.95002 -16.44001,-5.21997 -24.12,-8.71003 L 379.56998,891.12 c -3.62,-1.78003 -7.26001,-3.38001 -10.73001,-5.27002 l -10,-6.16999 11.16003,5.68 11.70999,4.69 23.73001,9.54999 c 8.16001,2.64001 16.5,4.92999 24.85001,7.46002 l 12.60998,3.72998 c 4.23999,1.15002 8.60999,1.76001 12.93,2.66998 l 26.25,5.07001 c 8.88,1.15002 17.88,1.75 26.92001,2.65997 l 13.63,1.25 c 4.54999,0.20001 9.13001,0 13.71998,0 l 27.72998,-0.27002 27.80999,-3.07001 14,-1.60998 13.82001,-3 27.83002,-6.22998 27.20001,-9.16998 13.65997,-4.71003 13.14002,-6.04998 c 8.72998,-4.13001 17.66998,-8 26.27002,-12.44001 16.53998,-10.15002 33.91998,-19.28997 49,-31.78997 l 11.70001,-8.87 5.84003,-4.45001 5.39001,-5 21.45001,-20.13001 c 7,-6.83001 13.06,-14.63 19.59003,-21.94 l 9.57001,-11.15997 c 2.92999,-3.91999 5.66998,-8 8.5,-12 23.60998,-31.32001 40.34997,-67.17999 52.85998,-103.46002 L 920,629.47998 c 2.13,-9.31 3.60999,-18.77002 5.34998,-28.07001 0.79998,-4.65997 1.71997,-9.28997 2.38,-13.95001 l 1,-14.10998 c 0.52002,-9.39002 1.51001,-18.65003 1.48999,-27.93 -1,-18.61999 -0.89001,-36.89999 -4.72998,-54.73999 C 923.77002,481.78 922.89996,472.91 920.37,464.32001 c -2.52997,-8.59 -5.10999,-16.96002 -7.64002,-25.39002 z"
                   style="fill:#8e735b;fill-opacity:1;fill-rule:evenodd;stroke:none"
                   id="path322" /><path
                   d="m 795.64001,785.31 c -2.79998,-0.45001 1.14002,-10.12 3.57001,-10.12 2.87,0.34003 -0.66003,10.53998 -3.57001,10.12 z"
                   style="fill:#8e735b;fill-opacity:1;fill-rule:evenodd;stroke:none"
                   id="path324" /><path
                   d="m 899.75,528.71997 c -2.79999,1.90997 -3.65997,-10.84997 -3.39001,-20.84 -0.76001,-10 0,-17.44 3.21002,-4.75 0.61999,-0.54998 3.69,23.07004 0.17999,25.59 z"
                   style="fill:#8e735b;fill-opacity:1;fill-rule:evenodd;stroke:none"
                   id="path326" /><path
                   d="m 893.19,452.57001 c -1.86999,1.89999 -7.92999,-6.54001 -6,-8.51001 1.93,-1.97 7.87,6.5 6,8.51001 z"
                   style="fill:#8e735b;fill-opacity:1;fill-rule:evenodd;stroke:none"
                   id="path328" /><path
                   d="m 107.73,397.32999 c 2.56,-1.29999 2.7,3.92001 1.65,11.6 -0.83,7.73001 -3.86,17.75 -4.9,26.79999 -2.93,17.87 -6.609997,30.41 -4.669995,4.62 0,-0.29999 0.110001,-3 0.250005,-6.94001 0.1,-2 0.22,-4.25 0.33999,-6.69 0.38,-2.39999 0.77,-5 1.18,-7.51999 1.71,-10.28998 3.98,-20.78998 6.15,-21.86999 z"
                   style="fill:#8e735b;fill-opacity:1;fill-rule:evenodd;stroke:none"
                   id="path330" /><path
                   d="m 853.53003,713.40002 c 0,0 0.42999,-1.14001 1.34003,-3.15002 l 3.88,-8.38 5.62,-11.93 c 1.94,-4.45001 3.5,-9.5 5.36999,-14.44 1.87,-4.94 3.65003,-10 5.40003,-14.77002 l 2.57,-7 1.78003,-6.65002 c 2.21002,-8.41999 3.92999,-14.72998 4.56,-16.73999 1.45978,-5.29047 2.58978,-10.65052 3.39001,-16.08002 1,-8.09998 2.19001,-18 3.69001,-27.78003 1,-4.83002 1.11999,-9.78003 1.53997,-14.40002 0.41999,-4.62 0.91999,-9 1.54999,-12.75 1.25,-7.59998 3.06,-13.10999 5.37,-14.57001 0.57001,-0.28998 0.57001,8.52002 0.46997,18.38 -0.10004,9.85999 -0.14002,20.78998 -1.20001,24 -1.62,7.87 -3.08002,15 -4.5,21.91999 -0.71997,3.45001 -1.43,6.84997 -2.13001,10.22998 -1.04999,3.29998 -2.09003,6.59002 -3.15002,9.92999 l -6.69001,21.20001 C 880.12,658.05988 876.12,665.75989 872.5,674.90985 c -3.84998,11.67017 -14.07001,37.67017 -18.96997,38.49017 z"
                   style="fill:#8e735b;fill-opacity:1;fill-rule:evenodd;stroke:none"
                   id="path332" /><path
                   d="m 92.089996,476.29999 c 3.849999,-2.92002 4.25,18.07998 3.620003,34.70999 0.839996,16.62002 0,29.30002 -3.379997,9.23001 C 90.910004,518.94 89,478.79999 92.089996,476.29999 Z"
                   style="fill:#8e735b;fill-opacity:1;fill-rule:evenodd;stroke:none"
                   id="path334" /><path
                   d="M 92.099998,560.79999 C 88.459999,565.33997 107.23,586.63 102.4,592.42999 c -3.129393,-3.72937 -5.862723,-7.72937 -8.199995,-12 -3.610009,-6.66998 -6.200005,-14.82 -2.100007,-19.63 z"
                   style="fill:#8e735b;fill-opacity:1;fill-rule:evenodd;stroke:none"
                   id="path336" /><path
                   d="m 105.1,633.5 c 1.52,-2.28998 7,4.37 6.32,5.65002 -1.48,2.34998 -7.23,-4.26001 -6.32,-5.65002 z"
                   style="fill:#8e735b;fill-opacity:1;fill-rule:evenodd;stroke:none"
                   id="path338" /><path
                   d="m 112.88,654.26001 c 1.41,-2.53003 11.34,8.67999 9.59,12 -1.36,2.73999 -11.35,-8.66003 -9.59,-12 z"
                   style="fill:#8e735b;fill-opacity:1;fill-rule:evenodd;stroke:none"
                   id="path340" /><path
                   d="m 125.89,684.78003 c 0.5,-0.81 8.81999,17.84997 19,37.73999 l 16.64,28 3.55,5.94 c 1.27001,1.75 2.45,3.35999 3.52001,4.82001 l 4.85,6.64001 c 24,32.33002 -17.47999,-18.83001 -21.75,-29.88 -1,-1.70001 -3.61,-5 -6.89999,-9.15003 L 139.42999,722 c -1.71,-2.54999 -3.3,-5.33002 -4.91,-8.12 C 128.16,702.72998 122.91,690.76001 125.89,684.78003 Z"
                   style="fill:#8e735b;fill-opacity:1;fill-rule:evenodd;stroke:none"
                   id="path342" /><path
                   d="m 179.17999,768.07001 c 0.52001,-2.59003 8.31,1.35998 8,2.88 -0.47999,2.64997 -8.28999,-1.33001 -8,-2.88 z"
                   style="fill:#8e735b;fill-opacity:1;fill-rule:evenodd;stroke:none"
                   id="path344" /><path
                   d="m 912.72998,438.92999 c -7.40997,-4 -7.40997,-10.23001 -5.88,-12.45001 1.52996,-2.22 6.36004,-0.47998 5.88,12.45001 z"
                   style="fill:#8e735b;fill-opacity:1;fill-rule:evenodd;stroke:none"
                   id="path346" /><path
                   d="m 181,790.71997 c -0.06,-5.41998 37.33,33.66998 10.23,11 -0.81,-0.69 -3.52001,-2.84997 -6,-5.09997 -2.48,-2.25 -4.37999,-4.90998 -4.23,-5.90003 z"
                   style="fill:#8e735b;fill-opacity:1;fill-rule:evenodd;stroke:none"
                   id="path348" /><path
                   d="m 218,833.56 c 0,-6.21002 40.78,29.66998 11.67,9.59997 C 227.94,842 218,835.58002 218,833.56 Z"
                   style="fill:#8e735b;fill-opacity:1;fill-rule:evenodd;stroke:none"
                   id="path350" /><path
                   d="m 247.88,862.91998 c 0,0 17.85999,3.90998 18.19001,7 -0.84421,0.33112 -1.71753,0.54114 -2.62,0.63001 -1.9678,0.30542 -3.94446,0.38208 -5.92999,0.22998 C 253.12,870.41998 248.47,868.51001 247.88,862.91998 Z"
                   style="fill:#8e735b;fill-opacity:1;fill-rule:evenodd;stroke:none"
                   id="path352" /></g></g></g></g></g></g><g
       id="g354"><g
         id="g356"
         clip-path="url(#clipPath360)"><g
           id="g362"
           clip-path="url(#clipPath366)"><g
             id="g368"
             clip-path="url(#clipPath372)"><g
               id="g374"
               clip-path="url(#clipPath378)"><g
                 id="g380"
                 transform="matrix(0.02581454,-0.14445448,0.14445448,0.02581454,843.87598,1300.7072)"><path
                   d="m 2766.5791,1366.8051 c 0,0 -1.1499,-13.091 -2.877,-32.7281 -0.4689,-4.896 -0.975,-10.198 -1.5119,-15.807 -0.5281,-5.605 -1.0811,-11.51 -2.1431,-17.584 -1.886,-12.1619 -3.969,-25.097 -6.1279,-37.982 -1.863,-12.918 -5.1741,-25.648 -7.854,-37.583 -2.811,-11.919 -5.354,-23.016 -7.8191,-32.4571 -5.6809,-18.702 -9.47,-31.1679 -9.47,-31.1679 0,0 -1.03,-3.317 -2.8379,-9.121 -0.9099,-2.891 -2.019,-6.404 -3.2849,-10.4351 -1.2561,-4.0279 -3.104,-8.4759 -4.8979,-13.364 -3.732,-9.696 -8.0901,-21.009 -12.7539,-33.13 -1.2019,-3.009 -2.3391,-6.084 -3.656,-9.149 -1.388,-3.0401 -2.7911,-6.1181 -4.211,-9.22 -2.854,-6.1739 -5.7539,-12.441 -8.6579,-18.708 -2.929,-6.22 -5.8601,-12.438 -8.742,-18.559 -2.895,-6.0959 -6.32,-11.895 -9.342,-17.578 -6.2271,-11.2329 -12.041,-21.714 -17.021,-30.70199 -5.1721,-8.85401 -10.0161,-15.97803 -13.1721,-21.04102 -3.232,-5.01898 -5.0801,-7.888 -5.0801,-7.888 0,0 -1.854,-2.85998 -4.637,-7.14899 -2.854,-4.25097 -6.3379,-10.03399 -10.3889,-15.54699 -8.1079,-10.94397 -16.217,-21.89099 -16.217,-21.89099 l -0.016,-0.022 0.016,0.022 c -6.4571,-10.54999 -12.3731,-20.68903 -18.8601,-29.84803 -6.2081,-9.24902 -12.084,-17.99701 -17.5911,-26.19598 -5.2639,-8.29199 -11.0901,-15.50299 -16.0161,-22.37598 -4.99,-6.81299 -9.564,-13.05597 -13.6861,-18.68298 -2.0439,-2.81097 -3.976,-5.46899 -5.7929,-7.966 -1.94,-2.417 -3.7581,-4.67701 -5.449,-6.776 -3.3611,-4.20203 -6.2151,-7.76398 -8.522,-10.65198 -4.583,-5.771 -7.009,-8.82599 -7.009,-8.82599 -2.9729,-1.646 -7.957,-5.74201 -14.3999,-11.578 -6.7771,-5.61499 -15.166,-12.86701 -24.4541,-21.15503 -4.6121,-4.14899 -9.4939,-8.54401 -14.5711,-13.112 -5.279,-4.36701 -10.7619,-8.901 -16.363,-13.53803 -11.2561,-9.16498 -22.3301,-19.143 -34.4099,-27.88501 -5.873,-4.47497 -11.7051,-8.919 -17.4199,-13.27197 -5.739,-4.289 -11.0559,-8.71997 -16.7481,-12.44501 -11.0371,-7.643 -21.2419,-14.71301 -29.945,-20.74298 -2.1509,-1.49902 -4.211,-2.935 -6.167,-4.29797 -2.0371,-1.27301 -3.9661,-2.47901 -5.7759,-3.60999 -3.6089,-2.25897 -6.7461,-4.22198 -9.323,-5.83502 -5.124,-3.22497 -8.03,-5.05402 -8.03,-5.05402 9.4221,4.63801 17.5769,8.5 24.5529,11.62903 6.7749,3.331 12.3011,5.99701 16.875,7.87 9.115,3.781 14.137,4.64697 16.0249,3.21197 1.8951,-1.42999 0.6609,-5.15802 -2.6709,-10.45898 -1.6679,-2.64899 -3.8569,-5.68903 -6.447,-9.02197 -2.644,-3.27802 -5.447,-7.08399 -8.9761,-10.62702 -6.8879,-7.26098 -14.903,-15.23901 -23.0239,-23.138 -4.115,-3.893 -8.0339,-8.00799 -12.261,-11.55798 -4.2019,-3.581 -8.2829,-7.05701 -12.125,-10.32898 -7.7451,-6.49402 -14.519,-12.17102 -19.3569,-16.22699 -4.801,-4.112 -7.949,-6.25098 -7.949,-6.25098 -59.122,-50.60699 -125.9199,-98.45099 -198.9861,-140.28601 -4.466,-2.81799 -9.2209,-5.06299 -13.8479,-7.59698 l -13.9838,-7.46201 -14.021,-7.54199 -7.022,-3.79999 -7.189,-3.44699 c -9.608,-4.62701 -19.233,-9.26099 -28.863,-13.901 l -7.239,-3.51999 -3.621,-1.767 -3.692,-1.57599 -14.808,-6.32599 -29.709,-12.84799 -30.338,-11.461 -15.2111,-5.82101 -3.811,-1.46399 -3.863,-1.258 -7.73,-2.52801 c -10.3361,-3.418 -20.668,-6.83402 -30.988,-10.24701 l -7.7641,-2.59601 -7.8509,-2.20401 -15.729,-4.40201 c -10.5041,-2.888 -20.979,-6.07599 -31.5411,-8.806 -10.64,-2.474 -21.258,-4.94198 -31.857,-7.40899 -5.322,-1.25601 -10.64,-2.51099 -15.95,-3.76502 -5.313,-1.306 -10.6889,-2.04699 -16.034,-3.10699 -21.416,-3.86801 -42.823,-8.444 -64.3571,-10.92899 -10.786,-1.51501 -21.537,-3.02801 -32.249,-4.53299 -10.745,-1.12399 -21.4871,-1.98901 -32.224,-3.02301 -85.852,-7.884 -170.886,-6.51599 -250.916,2.71701 -80.016,9.267 -154.932,26.22699 -221.218,47.01599 -66.314,20.82001 -123.84903,45.461 -171.11307,68.13599 -23.25,11.905 -44.71899,22.26199 -62.461,32.90399 -18,10.29999 -33.72198,18.98001 -45.77398,27.04199 -12.29602,7.85999 -21.784,13.926 -28.198,18.025 -3.21503,2.07101 -5.659,3.64599 -7.29901,4.70199 -1.58802,1.11802 -2.39801,1.689 -2.39801,1.689 -10.71601,7.89899 -21.409,15.77899 -32.07703,23.64499 -5.30402,4 -10.815,7.80301 -15.95801,11.98099 -5.15698,4.18399 -10.30902,8.362 -15.45501,12.53598 -10.25098,8.42102 -20.75,16.65002 -30.82502,25.29797 -9.92102,8.85999 -19.82,17.70203 -29.69702,26.52301 -4.89502,4.48102 -10.03399,8.76502 -14.73102,13.427 -4.73797,4.646 -9.46899,9.28601 -14.19403,13.92102 -9.41302,9.33399 -19.05298,18.526 -28.289,28.05298 -9.02801,9.75 -18.03601,19.47699 -27.02301,29.18201 -4.46399,4.90399 -9.09497,9.70398 -13.42401,14.71399 -4.271,5.06799 -8.534,10.13 -12.79199,15.18701 -8.53302,10.20001 -17.04498,20.37598 -25.53699,30.52801 -8.04199,10.55597 -16.065,21.08399 -24.06799,31.59003 -4.013,5.29199 -8.01901,10.58099 -12.021,15.86298 -3.83999,5.38202 -7.52801,10.85699 -11.29501,16.29498 -7.50501,10.95398 -14.99301,21.87903 -22.46201,32.78003 -7.26098,11.05902 -13.992,22.40399 -20.99499,33.63702 -6.857,11.30103 -14.12299,22.45002 -20.263,34.10303 -6.379,11.60498 -12.74201,23.18402 -19.09201,34.73602 l -4.758,8.711 c -1.56201,2.91303 -2.92999,5.901 -4.40298,8.84802 -2.89499,5.93201 -5.78601,11.85401 -8.67402,17.77302 -46.32501,94.78907 -81.445,194.94507 -102.81298,297.09497 -21.68601,102.097 -31.308,205.74 -28.86701,308.796 0.121,6.4511 0.24201,12.895 0.36499,19.33 0.10501,6.443 0.72501,12.822 1.07901,19.2419 0.879,12.845 1.758,25.662 2.63401,38.444 0.53399,6.395 0.764,12.848 1.57699,19.189 0.75202,6.3599 1.50299,12.718 2.25501,19.062 1.56799,12.7359 3.134,25.441 4.69601,38.113 0.702,6.375 1.811,12.6479 2.90201,18.925 1.09201,6.289 2.181,12.5711 3.268,18.8421 2.24701,12.581 4.487,25.128 6.724,37.644 2.819,12.4101 5.633,24.782 8.439,37.127 1.44,6.187 2.88199,12.363 4.319,18.534 1.46499,6.1711 2.823,12.3791 4.634,18.419 25.95401,97.827 62.857,191.498 108.814,278.729 45.94699,87.2561 100.92001,168.082 162.73501,240.9651 61.80902,72.906 130.456,137.8821 203.646,194.0591 73.18799,56.1989 150.919,103.594 230.83497,141.934 79.9231,38.366 162.01,67.6741 244.0001,88.3999 82.089,20.4671 164.054,31.8421 243.8201,35.907 9.975,0.3999 19.9189,0.7981 29.828,1.1919 4.951,0.168 9.895,0.336 14.8299,0.5039 4.9351,0.1861 9.8571,-0.025 14.773,-0.035 19.658,-0.2319 39.168,-0.624 58.506,-1.1699 4.836,-0.057 9.6579,-0.4761 14.473,-0.811 4.813,-0.354 9.615,-0.712 14.413,-1.066 9.5739,-0.767 19.118,-1.53 28.63,-2.2949 4.7459,-0.4089 9.484,-0.8159 14.219,-1.227 4.727,-0.4031 9.4429,-0.805 14.1479,-1.503 9.397,-1.2858 18.761,-2.5649 28.096,-3.841 9.305,-1.3521 18.578,-2.6961 27.817,-4.0381 4.612,-0.718 9.2209,-1.323 13.7979,-2.1509 4.575,-0.8979 9.141,-1.7959 13.6961,-2.689 18.214,-3.6149 36.233,-7.3491 54.05,-11.1931 17.755,-4.322 35.262,-9.164 52.584,-13.8789 4.323,-1.2009 8.641,-2.3969 12.947,-3.594 4.3051,-1.198 8.6,-2.372 12.8321,-3.832 8.463,-2.811 16.8979,-5.6111 25.305,-8.3999 8.3571,-2.854 16.688,-5.6951 24.984,-8.5249 4.131,-1.4399 8.256,-2.875 12.37,-4.311 4.084,-1.5459 8.1281,-3.2051 12.1711,-4.8069 16.1619,-6.469 32.109,-13.01 47.832,-19.6121 7.9079,-3.1509 15.531,-7.0459 23.2029,-10.624 7.6211,-3.678 15.2141,-7.3421 22.7819,-10.988 7.5071,-3.701 14.9871,-7.388 22.44,-11.0621 7.3769,-3.8259 14.582,-7.966 21.793,-11.9499 14.385,-8.065 28.5839,-16.074 42.479,-24.271 13.684,-8.687 27.143,-17.395 40.373,-26.1079 6.584,-4.416 13.2319,-8.594 19.605,-13.2119 6.3291,-4.658 12.6369,-9.295 18.916,-13.919 12.459,-9.3459 24.854,-18.3979 36.7209,-27.969 11.752,-9.789 23.273,-19.563 34.5721,-29.3091 5.614,-4.935 11.322,-9.611 16.695,-14.7319 5.3479,-5.1211 10.677,-10.2209 15.98,-15.2991 10.5249,-10.207 20.908,-20.2609 30.9241,-30.4838 9.779,-10.563 19.342,-21.0779 28.686,-31.5372 74.6721,-83.9509 128.0921,-173.6379 164.43,-260.3459 36.383,-86.8569 55.5439,-171.104 62.3459,-248.266 1.5991,-19.3669 3.0991,-37.932 2.9089,-56.578 0.056,-9.2419 0.019,-18.326 -0.1049,-27.2519 -0.084,-4.45 -0.167,-8.8731 -0.251,-13.273 -0.094,-4.379 -0.5249,-8.869 -0.8049,-13.238 -1.273,-17.553 -2.8602,-34.4671 -4.7151,-50.7491 -2.4751,-16.547 -5.2849,-32.4909 -8.261,-47.789 -2.6919,-15.1961 -6.9561,-30.268 -10.8321,-44.522 -1.987,-7.146 -4.0161,-14.14 -6.0749,-20.98 -1.053,-3.43 -2.0161,-6.7889 -3.1641,-10.166 -1.2109,-3.379 -2.4131,-6.735 -3.6089,-10.0639 -4.8378,-13.271 -9.77,-25.938 -14.758,-38.028 -1.26,-3.009 -2.512,-5.993 -3.7539,-8.96 -1.3999,-2.972 -2.7891,-5.922 -4.1709,-8.8509 -2.7981,-5.833 -5.6001,-11.522 -8.4031,-17.0711 -5.6279,-11.1049 -11.189,-21.6369 -16.854,-31.672 -6.103,-10.1269 -12.165,-19.7209 -18.1521,-28.811 -6.0239,-9.0959 -11.823,-17.661 -17.811,-25.805 -6.2681,-8.1911 -12.417,-15.903 -18.429,-23.1701 -12.053,-14.537 -23.2419,-27.2519 -34.9819,-38.584 -11.418,-11.2889 -22.0371,-21.02 -31.698,-29.404 -4.7271,-4.184 -9.646,-8.074 -14.2329,-11.643 -4.5801,-3.572 -8.888,-6.826 -12.9099,-9.7889 -8.0401,-5.926 -14.9251,-10.689 -20.531,-14.436 -11.211,-7.469 -17.3011,-10.9561 -17.3011,-10.9561 30.1951,11.562 60.951,26.606 91.3201,45.444 14.7109,9.373 29.3979,19.6949 44.0039,31.004 7.2949,5.6479 14.6111,11.553 21.822,17.689 6.9199,6.102 13.8091,12.447 20.658,19.0429 6.8491,6.594 13.656,13.4361 20.4199,20.521 6.6951,7.075 13.6841,14.4571 19.8049,21.945 12.5779,15.037 24.92,31.0529 36.969,48.0269 3.1001,4.262 5.7891,8.5 8.5879,12.8261 2.7749,4.3199 5.5301,8.699 8.2671,13.137 5.469,8.8759 10.8511,17.984 16.1399,27.3199 2.634,4.6639 5.2991,9.4041 7.8359,14.168 2.357,4.761 4.7271,9.547 7.105,14.3509 4.6861,9.6811 9.2681,19.577 13.7381,29.687 35.1899,80.5971 56.7119,173.305 61.5009,269.828 5.0071,96.484 -6.7451,196.4601 -32.198,290.6152 -25.2649,94.2519 -64.0879,182.445 -108.1499,258.113 -21.7241,38.2119 -45.5039,72.3611 -68.3259,104.1531 -23.6951,30.655 -46.2151,59.3601 -68.4199,82.8789 -10.95,11.9851 -21.4629,23.1841 -31.4199,33.5381 -10.2051,9.9589 -19.854,19.0769 -28.7981,27.342 -8.95,8.26 -17.2019,15.6541 -24.646,22.127 -3.6931,3.2919 -7.283,6.1779 -10.6741,8.799 -3.3789,2.646 -6.5371,5.064 -9.4629,7.251 -23.479,17.4971 -31.678,20.218 -20,5.155 11.617,-15.1001 19.0181,-28.1841 23.207,-39.51 4.031,-11.5959 4.9231,-21.32 3.6001,-29.479 -2.6699,-16.311 -14.1211,-26.3889 -27.789,-32.7319 -13.596,-6.158 -29.926,-9.447 -42.5239,-10.802 -12.646,-1.419 -21.813,-1.2051 -21.813,-1.2051 -6.8111,7.7141 -13.7771,15.397 -20.886,23.0439 -7.2671,7.326 -14.689,14.6001 -22.251,21.8421 -7.5601,7.238 -15.262,14.438 -23.0979,21.594 -3.928,3.553 -7.844,7.1951 -11.875,10.6389 -4.0811,3.363 -8.1741,6.7329 -12.271,10.105 -16.519,13.3569 -33.4399,26.7991 -51.0071,39.479 -17.7209,12.268 -35.8999,24.2991 -54.466,36.063 -74.721,45.7151 -157.2591,82.1311 -242.482,108.25 -21.3349,6.2199 -42.792,12.3589 -64.329,17.7509 -21.566,4.845 -43.1989,9.376 -64.833,13.597 -5.4069,1 -10.8189,2.2209 -16.2209,2.98 -5.4091,0.802 -10.811,1.604 -16.202,2.404 -10.8011,1.5649 -21.596,3.053 -32.3731,4.469 -10.775,1.395 -21.54,2.814 -32.275,3.979 -10.7581,0.8201 -21.473,1.634 -32.1381,2.447 -10.7039,0.68 -21.3559,1.3601 -31.9599,2.034 -5.3111,0.288 -10.6081,0.581 -15.895,0.8659 -5.289,0.2461 -10.5721,0.1951 -15.8431,0.2859 -21.0849,0.208 -41.995,0.1651 -62.667,-0.112 l -7.738,-0.1299 -7.7049,-0.407 c -5.1331,-0.2949 -10.246,-0.5869 -15.3421,-0.875 -10.202,-0.668 -20.334,-1.3301 -30.391,-1.9839 -10.058,-0.73 -20.051,-1.438 -29.953,-2.3201 -9.873,-1.205 -19.666,-2.3999 -29.376,-3.5879 -9.7089,-1.288 -19.337,-2.5639 -28.8769,-3.832 -4.7691,-0.668 -9.516,-1.332 -14.239,-1.9961 -4.725,-0.6621 -9.429,-1.3259 -14.063,-2.2461 -18.59,-3.4121 -36.808,-6.9431 -54.6021,-10.5591 -4.447,-0.916 -8.87,-1.8259 -13.2669,-2.7299 -4.402,-0.8811 -8.761,-1.835 -13.053,-2.959 -8.603,-2.187 -17.103,-4.3421 -25.494,-6.4729 -16.768,-4.354 -33.1031,-8.6699 -48.901,-13.1311 -15.6541,-4.9121 -30.825,-9.8191 -45.476,-14.6761 -7.3149,-2.4541 -14.511,-4.8701 -21.579,-7.2419 -3.5229,-1.2251 -7.045,-2.3491 -10.472,-3.637 -3.417,-1.3139 -6.801,-2.6149 -10.155,-3.9079 -13.406,-5.1831 -26.2681,-10.27 -38.55802,-15.22 -12.253,-5.0281 -24.10102,-9.54 -34.97199,-14.739 -21.90698,-10.0371 -41.45502,-19.314 -58.44403,-27.5591 -16.85699,-8.51 -30.93799,-16.438 -42.47699,-22.709 -11.50403,-6.342 -20.32001,-11.3159 -26.263,-14.6989 -5.96997,-3.335 -8.95898,-5.2701 -8.95898,-5.2701 22.02001,9.117 43.35803,16.063 63.48303,21.615 5.03698,1.3789 10.00598,2.658 14.90197,3.844 4.92103,1.1411 9.857,2.0139 14.67103,2.895 9.64697,1.721 18.992,3.104 28.01599,4.181 9.02502,1.0769 17.72699,1.854 26.09198,2.3701 8.36499,0.5119 16.362,0.8379 24.182,0.549 15.55801,-0.3789 29.69401,-1.58 42.33901,-3.258 12.646,-1.6741 23.8001,-3.8259 33.413,-6.1001 9.652,-2.3689 17.865,-5.127 24.422,-7.447 13.137,-4.7229 19.94,-8.3511 19.94,-8.3511 -33.033,-3.5239 -64.924,-9.6741 -96.616,-15.6831 -3.958,-0.771 -7.908,-1.541 -11.849,-2.3091 -3.944,-0.772 -7.783,-1.7791 -11.66805,-2.6699 -7.75598,-1.8731 -15.47498,-3.7361 -23.15503,-5.594 -15.35901,-3.8259 -30.69598,-7.5711 -45.73797,-11.752 -14.896,-4.4651 -29.67402,-9.0271 -44.323,-13.674 -7.32801,-2.356 -14.62,-4.698 -21.87598,-7.033 -7.315,-2.2649 -14.27801,-5.1121 -21.38397,-7.6721 -28.18201,-10.646 -56.24903,-20.916 -82.62598,-33.1861 -106.82001,-47.144 -199.46503,-104.864 -278.16501,-165.7771 -9.83801,-7.6279 -19.531,-15.2399 -29.07501,-22.8259 -9.48599,-7.646 -18.44101,-15.656 -27.46799,-23.4231 -17.858,-15.7141 -35.61801,-30.864 -51.62298,-46.935 -8.09601,-7.9761 -16.09,-15.8479 -23.98099,-23.6189 -3.91901,-3.9221 -7.81299,-7.8191 -11.68201,-11.6951 -1.927,-1.9431 -3.849,-3.885 -5.764,-5.8159 -1.84299,-1.9939 -3.68201,-3.9839 -5.51401,-5.9671 -14.625,-15.8911 -28.72101,-31.5549 -42.301,-46.9489 -6.91299,-7.604 -13.10501,-15.594 -19.43399,-23.3169 -6.24099,-7.7981 -12.393,-15.4871 -18.457,-23.065 -5.99699,-7.646 -11.905,-15.1799 -17.72799,-22.6049 -5.59801,-7.5901 -10.973,-15.1741 -16.292,-22.6341 -10.61399,-14.935 -20.77299,-29.531 -30.49699,-43.761 -9.295,-14.5039 -18.084,-28.6931 -26.521,-42.4609 -17.238,-27.3259 -31.135,-54.074 -44.226,-78.792 -3.22699,-6.2041 -6.39199,-12.292 -9.49199,-18.2581 -3.047998,-5.9929 -5.726999,-12.021 -8.486001,-17.863 -5.444001,-11.718 -10.576996,-22.991 -15.418999,-33.8169 -2.402001,-5.4189 -4.751999,-10.7209 -7.046997,-15.896 -2.276001,-5.1889 -4.530998,-10.24 -6.434998,-15.302 -3.945999,-10.068 -7.633999,-19.671 -11.081001,-28.813 -3.390999,-9.162 -6.603001,-17.836 -9.637001,-26.031 -2.931999,-8.23 -5.880001,-15.901 -8.068001,-23.317 -9.221,-29.491 -15.380001,-51.429 -19.297001,-65.96 -2.042,-7.239 -3.121,-12.755 -3.933,-16.385 -0.768,-3.646 -1.146,-5.4439 -1.146,-5.4439 2.084,4.348 4.09,8.394 6.021,12.1579 1.937999,3.7581 4.010999,7.168 5.879999,10.349 3.795,6.344 7.256,11.6231 10.402,15.959 6.293,8.668 11.318001,13.5711 15.276001,15.6639 7.924,4.172 11.579998,-2.863 12.977001,-13.922 1.394001,-11.0679 0.561001,-26.1839 -0.575,-38.5 -0.811001,-12.4219 -1.915001,-22.088 -1.915001,-22.088 -3.139,-10.891 -6.245999,-21.667 -9.317002,-32.326 -1.499,-5.341 -2.988998,-10.652 -4.471,-15.934 -1.487999,-5.2829 -2.946999,-10.541 -4.118,-15.8399 -4.973999,-21.117 -9.643,-41.828 -14.031,-62.105 -2.351,-10.111 -3.928999,-20.242 -5.666001,-30.2271 -1.66,-9.994 -3.299999,-19.8759 -4.920999,-29.6429 -1.536001,-9.777 -3.053,-19.441 -4.555001,-28.991 -1.241999,-9.578 -2.215999,-19.071 -3.2560001,-28.441 -2.0250001,-18.749 -3.8520002,-37.053 -5.4790001,-54.917 -0.9949999,-17.8881 -1.8229999,-35.342 -2.5019998,-52.351 -0.30700008,-8.5 -0.61000005,-16.895 -0.91000006,-25.181 -0.30900002,-8.282 -0.001,-16.443 0.012,-24.503 0.18100003,-16.1141 0.47400001,-31.7951 0.86500006,-47.0401 0.1599999,-15.2419 1.4049999,-30.051 2.467,-44.436 1.0880003,-14.382 2.2460003,-28.3421 3.4549999,-41.876 0.9860001,-13.531 3.0750001,-26.661 4.7540011,-39.376 1.767999,-12.714 3.560999,-25.016 5.368,-36.916 0.926,-5.944 1.835001,-11.792 2.731,-17.547 1.138001,-5.733 2.258,-11.373 3.357001,-16.9189 2.298,-11.0561 4.521,-21.7491 6.669,-32.0811 2.265999,-10.282 4.450001,-20.208 6.561001,-29.786 2.560002,-9.491 5.026001,-18.634 7.402001,-27.438 4.856998,-17.568 9.526001,-33.696 13.961002,-48.472 4.850998,-14.6961 9.643997,-28.016 13.999001,-40.1031 4.384002,-12.08394 8.451995,-22.90993 12.179,-32.57094 3.797997,-9.64301 7.710999,-18.00598 10.951996,-25.36701 13.238999,-29.35998 20.016999,-41.67102 20.016999,-41.67102 -3.657,14.375 -7.093,28.43799 -10.321,42.18701 -1.581,6.87903 -3.143,13.67401 -4.686996,20.38501 -1.563004,6.70502 -2.57,13.45301 -3.810997,20.05603 -2.349998,13.23302 -4.515999,26.15202 -6.509003,38.75192 -0.967003,6.3011 -1.921997,12.522 -2.864998,18.662 -0.952003,6.1331 -1.413002,12.27 -2.084999,18.283 -2.375,24.103 -4.511001,46.895 -5.516998,68.5129 -0.581001,21.671 -0.716003,42.0971 -0.490997,61.3111 0.085,4.807 0.075,9.5279 0.299003,14.1889 0.294999,4.661 0.586998,9.2491 0.875,13.767 0.617997,9.031 1.306,17.77 2.053002,26.217 0.747001,8.4471 1.553001,16.6081 2.410003,24.485 0.446999,3.934 0.889,7.804 1.321999,11.6081 0.497002,3.801 1.171997,7.5279 1.764,11.192 2.449997,14.646 5.026001,28.208 7.665001,40.7459 1.32,6.2701 2.653999,12.2851 3.999,18.0561 1.323,5.7669 2.661,11.2879 4.301,16.5739 6.22901,21.1441 12.333,38.501 17.934,52.6591 2.832,7.077 5.412,13.3571 8.05801,18.912 2.73399,5.557 5.276,10.386 7.58799,14.563 9.263,16.6889 14.808,23.01 14.80901,23.01 -3.459,-12.037 -6.87601,-24.634 -10.23601,-37.742 -3.00599,-13.109 -5.643,-26.733 -8.35,-40.832 -1.293,-7.068 -2.60401,-14.2359 -3.933,-21.501 -1.221,-7.279 -2.726,-14.671 -3.533,-22.171 -1.887,-15.003 -3.654,-30.435 -5.291,-46.248 -0.776,-7.923 -1.562,-15.9261 -2.354,-24.0041 -0.399,-8.1049 -0.804,-16.2889 -1.21099,-24.5429 -0.724,-16.5351 -1.295,-33.4041 -1.70501,-50.5601 0.075,-17.125 0.612,-34.519 1.16201,-52.156 0.335,-8.826 0.674,-17.699 1.012,-26.618 0.758,-8.891 1.517,-17.829 2.281,-26.804 1.69699,-17.951 3.23,-36.146 5.567,-54.345 2.652,-18.146 5.486,-36.417 8.494,-54.7609 l 2.289,-13.76708 c 0.808,-4.58697 1.857,-9.11798 2.79199,-13.68298 1.96801,-9.11798 3.937,-18.24597 5.907,-27.37903 4.043,-18.26099 7.987,-36.61798 13.267,-54.57501 5.011,-18.03699 10.112,-36.068 15.451,-53.96601 5.917,-17.68402 11.961,-35.28601 18.11,-52.75201 5.875,-17.58099 13.07,-34.5 19.94701,-51.40997 3.50101,-8.43201 6.989,-16.83002 10.459,-25.18402 1.78101,-4.15802 3.438,-8.36603 5.33099,-12.44397 1.911,-4.07203 3.81701,-8.13099 5.71801,-12.18 7.63499,-16.18499 15.307,-32.14898 22.981,-47.84503 l 2.88499,-5.86999 3.082,-5.73297 c 2.06101,-3.81098 4.11499,-7.60498 6.16001,-11.388 4.13199,-7.54603 8.23099,-15.034 12.29501,-22.45704 4.11499,-7.401 8.194,-14.73602 12.23599,-22.005 4.055,-7.26099 8.543,-14.15997 12.766,-21.13202 8.55899,-13.87 17.03298,-27.40698 25.38101,-40.57098 4.065,-6.659 8.643,-12.84501 12.91101,-19.12601 4.34799,-6.229 8.63901,-12.37299 12.86801,-18.42999 4.26401,-6.034 8.466,-11.98301 12.603,-17.83899 4.15799,-5.84101 8.19601,-11.63501 12.52499,-17.056 8.54999,-10.93201 16.80899,-21.491 24.75101,-31.64499 8.06299,-10.05802 15.52499,-19.94299 23.414,-28.74399 15.46399,-17.85999 29.61801,-33.897 42.14099,-47.892 13.01001,-13.55099 24.31699,-25.138 33.599,-34.57101 9.332,-9.38101 16.41897,-16.82599 21.57901,-21.52201 5.10998,-4.746 7.79602,-7.23901 7.79602,-7.23901 0,0 -0.20697,5.147 -0.51502,12.86801 -0.35699,7.63199 -0.35198,18.18302 -0.32598,28.57599 0.051,20.84601 0.80401,41.49399 0.80401,41.49399 48.23102,-48.392 98.77399,-88.76801 147.46301,-124.34601 12.41901,-8.608 24.68403,-16.987 36.77503,-25.13699 6.06897,-4.043 11.99799,-8.16001 18.06201,-11.986 6.12903,-3.729 12.20502,-7.42399 18.22998,-11.089 12.06201,-7.284 23.93903,-14.35699 35.62402,-21.22 5.77503,-3.53 11.82801,-6.534 17.68201,-9.704 5.89203,-3.10499 11.72699,-6.182 17.508,-9.229 92.58398,-48.527999 176.20499,-77.388999 244.27199,-96.100997 17.147,-4.424 33.262,-8.434 48.3261,-12.07 7.486,-1.942 14.921,-3.219 22.0131,-4.630001 7.099,-1.346001 13.9379,-2.643 20.5159,-3.89 13.1501,-2.411999 25.188,-4.669 36.2221,-6.4219995 11.103,-1.408 21.137,-2.6800003 30.084,-3.815 17.871,-2.119 31.317,-3.6610001 40.376,-4.41099982 C 1277.044,0.25400001 1281.661,0 1281.661,0 1184.387,18.09 1096.984,48.730999 1023.427,84.167999 1004.778,92.532997 987.51703,102.293 970.716,111.441 c -8.34497,4.663 -16.54797,9.249 -24.60601,13.752 -7.88501,4.79099 -15.52503,9.669 -23.02301,14.425 -7.45502,4.813 -14.76398,9.533 -21.92402,14.15499 -7.12298,4.67101 -14.12701,9.176 -20.64502,14.101 -13.182,9.61701 -25.64202,18.943 -37.36798,27.91501 -2.92401,2.24899 -5.80902,4.469 -8.65698,6.661 -2.82098,2.224 -5.492,4.578 -8.17499,6.822 -5.31201,4.551 -10.47497,8.97501 -15.48401,13.269 -9.96398,8.634 -19.208,16.826 -27.73297,24.52499 -16.55298,16.058 -30.23498,30.13201 -41.20202,41.64 -2.724,2.89899 -5.34302,5.55899 -7.66602,8.207 -2.297,2.67402 -4.43902,5.17099 -6.42798,7.48401 -3.91699,4.667 -7.22198,8.598 -9.88501,11.76902 -5.21899,6.41299 -7.92901,9.74398 -7.92901,9.74398 7.95398,-7.384 16.91797,-15.00799 26.49597,-22.67599 9.70202,-7.51901 20.35699,-14.67401 31.06201,-21.89499 5.375,-3.58301 10.80499,-7.13199 16.242,-10.62299 5.45203,-3.47201 10.82203,-7.00299 16.44703,-10.065 11.117,-6.30299 22.06298,-12.30299 32.44799,-17.86 20.56098,-11.425 39.83399,-19.66701 53.41803,-25.81999 13.64002,-6.06799 21.95002,-9.565 21.95002,-9.565 -4.16303,5.626 -15.891,15.627 -33.04999,28.934 -4.29901,3.308 -8.91602,6.859 -13.823,10.633 -4.80798,3.906 -9.89697,8.04201 -15.24597,12.38899 -10.73602,8.57901 -22.50098,17.983 -35.07599,28.03299 -12.19897,10.46899 -25.18201,21.60998 -38.73499,33.241 -3.37597,2.90799 -6.789,5.84601 -10.23297,8.81299 -3.32898,3.1 -6.68902,6.22698 -10.078,9.38198 -6.76703,6.306 -13.64301,12.71601 -20.60498,19.20499 -3.47601,3.24399 -6.96899,6.509 -10.48297,9.79099 l -5.27802,4.93301 -5.104,5.17099 c -6.79797,6.922 -13.65399,13.89999 -20.54102,20.91 -6.85498,7.034 -13.815,14.01902 -20.612,21.167 -6.59002,7.35 -13.18701,14.70498 -19.76599,22.044 -6.55102,7.345 -13.08502,14.672 -19.58099,21.953 -6.40698,7.35401 -12.37903,15.013 -18.48401,22.41001 -12.02502,14.96301 -24.22699,29.24597 -34.73102,44.04797 -5.37402,7.29199 -10.64898,14.45203 -15.80499,21.44898 -2.56799,3.5 -5.10699,6.96099 -7.61298,10.37701 -2.51898,3.40503 -4.98901,6.776 -7.229,10.24701 -9.13898,13.72498 -17.75201,26.66498 -25.68597,38.58301 -8.10798,11.78003 -14.482,23.24402 -20.521,33.10602 -5.927,9.92797 -11.08099,18.565 -15.31799,25.66601 -4.33301,7.03803 -7.26401,12.83502 -9.38401,16.70801 -2.09298,3.89001 -3.207,5.95697 -3.207,5.95697 0,0 2.978,-3.43201 8.49601,-10.14899 2.682,-3.40698 6.33099,-7.42499 10.51998,-12.26397 4.15101,-4.84803 8.95401,-10.45801 14.38199,-16.80103 5.37299,-6.35797 11.30301,-13.46698 17.73899,-21.30402 6.56201,-7.74902 14.04303,-15.94299 21.80102,-24.966 7.875,-8.93799 15.94898,-18.77899 24.98297,-28.89099 9.18402,-10 18.83399,-20.64801 28.90699,-31.927 40.971,-44.54801 91.19396,-97.22299 152.518,-153.04102 61.30298,-55.802 133.69598,-114.81701 218.495,-171.673 20.90802,-14.735 43.17398,-27.109 65.11798,-39.851 10.905,-6.517 22.339,-11.909 33.578,-17.603 11.28,-5.615 22.564,-11.13099 33.834,-16.541 11.4549,-4.97999 22.938,-9.75799 34.365,-14.491 5.725,-2.34199 11.4339,-4.67399 17.121,-7.00199 l 8.5389,-3.442 8.649,-3.056 c 11.528,-4.02301 23.005,-7.949 34.412,-11.77601 5.708,-1.89599 11.395,-3.78399 17.0561,-5.665 5.691,-1.78299 11.4489,-3.260998 17.138,-4.87 90.999,-26.192001 178.444,-37.396999 252.6491,-40.453998 18.5949,-0.422001 36.363,-0.694 53.2089,-0.853001 4.2111,-0.11 8.3691,0.031 12.4721,0.213001 4.097,0.161999 8.137,0.32 12.121,0.478001 7.9539,0.347 15.6739,0.683998 23.1519,1.009998 7.46,0.365002 14.677,0.719002 21.6441,1.061001 6.953,0.362999 13.6479,1.244999 20.0699,1.826 12.814,1.353001 24.575,2.592 35.188,3.711003 5.289,0.592003 10.291,1.152 15,1.679001 4.689,0.752998 9.0861,1.458999 13.174,2.114998 8.155,1.353996 15.087,2.502998 20.701,3.434997 11.1961,1.938004 17.15,2.967003 17.15,2.967003 16.0551,4.413002 19.183,8.442001 15.064,11.292 -4.1269,2.902 -15.564,5.417 -28.873,7.404999 -13.3161,2.037002 -28.51,3.533996 -40.354,4.815002 -11.861,1.671997 -20.3831,2.705005 -20.3831,2.705005 7.876,0.121 15.8731,0.19899 23.923,0.734 8.0439,0.711 16.152,1.547 24.271,2.488 8.1209,0.939 16.2519,1.981 24.348,3.105 4.043,0.584 8.081,1.165 12.109,1.746 4.0179,0.677 8.002,1.558 11.975,2.351 15.889,3.267 31.441,6.759 46.2989,10.293 1.854,0.449 3.7011,0.893 5.537,1.337 1.82,0.531 3.6331,1.059 5.432,1.584 3.594,1.065 7.146,2.116 10.648,3.155 6.973,2.12999 13.7519,4.202 20.302,6.202 26.2049,7.64 47.864,16.862 63.2359,22.771 7.637,3.078 13.7021,5.52299 17.86,7.199 4.111,1.793 6.2951,2.88699 6.2951,2.88699 12.37,3.172 24.9439,6.57801 37.644,10.172 6.332,1.86301 12.776,3.497 19.087,5.675 6.299,2.21001 12.627,4.43 18.979,6.659 12.6551,4.57401 25.4411,9.04801 38.0191,14.073 12.4601,5.34 24.8761,10.78 37.1769,16.261 6.125,2.80299 12.3259,5.36 18.2959,8.38699 5.9499,3.053 11.8759,6.09101 17.7639,9.11301 11.739,6.112 23.366,12.05 34.5969,18.213 11.0161,6.55301 21.8259,12.98599 32.363,19.25799 5.2361,3.16001 10.407,6.279 15.4971,9.35401 5.0401,3.15701 9.8491,6.543 14.6441,9.73099 19.0529,12.979 36.9489,24.638 51.9799,36.59201 7.6001,5.806 14.7581,11.27499 21.41,16.35699 3.311,2.54501 6.498,4.995 9.5471,7.341 2.9509,2.486 5.771,4.862 8.4529,7.12299 21.258,18.18301 33.842,28.94699 33.842,28.94699 -44.811,-29.74301 -99.0681,-62.09201 -156.7771,-90.401 -14.5491,-6.798 -29.1699,-13.63001 -43.7539,-20.44598 -14.8831,-6.12 -29.721,-12.224 -44.3999,-18.262 -3.6721,-1.49701 -7.333,-2.991 -10.982,-4.479 -3.717,-1.321 -7.4221,-2.637 -11.1149,-3.94901 -7.3789,-2.615 -14.7051,-5.211 -21.9629,-7.783 -7.2481,-2.56301 -14.432,-5.101 -21.527,-7.61 -7.2111,-2.177 -14.3361,-4.32801 -21.36,-6.44901 -7.022,-2.104 -13.944,-4.17799 -20.7519,-6.21699 -3.403,-1.017 -6.776,-2.025 -10.1181,-3.023 -1.67,-0.49899 -3.335,-0.994 -4.99,-1.487 -1.678,-0.417 -3.352,-0.82899 -5.0129,-1.24099 -13.289,-3.28101 -26.053,-6.43 -38.171,-9.42101 -6.074,-1.41901 -11.9041,-3.10001 -17.695,-4.17999 -5.779,-1.13001 -11.379,-2.224 -16.786,-3.28101 -10.798,-2.104 -20.823,-4.059 -29.9499,-5.837 -9.084,-1.963 -17.445,-2.868 -24.6961,-3.999 -7.265,-1.057 -13.503,-1.964 -18.593,-2.705 -10.168,-1.492 -15.746,-2.309 -15.746,-2.309 9.565,2.08799 18.953,4.259 28.051,6.453 4.539,1.117 9.012,2.218 13.4091,3.3 4.3879,1.112 8.708,2.12601 12.851,3.51401 16.65,5.186 31.7189,10.16499 44.395,14.477 3.162,1.112 6.212,2.03901 9.031,3.17901 2.8199,1.13699 5.482,2.21099 7.979,3.216 4.973,2.04201 9.2729,3.808 12.802,5.256 7.009,2.957 10.938,4.615 10.938,4.615 -26.7591,-3.62399 -66.619,-10.42999 -111.645,-15.811 -11.2481,-1.304 -22.813,-2.64501 -34.564,-4.006 -5.8421,-0.83099 -11.82,-1.05701 -17.786,-1.537 -5.966,-0.439 -11.963,-0.88001 -17.976,-1.323 -6,-0.455 -12.016,-0.911 -18.027,-1.368 l -9.004,-0.697 c -2.996,-0.24401 -6.019,-0.21601 -9.019,-0.338 -11.9931,-0.37 -23.913,-0.73599 -35.6281,-1.097 -5.848,-0.16701 -11.639,-0.43201 -17.3659,-0.525 -5.729,0.089 -11.3951,0.176 -16.976,0.26101 -11.139,0.14999 -21.943,0.298 -32.279,0.438 -10.3261,-0.10001 -20.174,0.845 -29.4161,1.32001 -9.239,0.546 -17.879,1.057 -25.7889,1.52499 -15.829,0.61 -28.658,2.49201 -37.5811,3.29801 -8.9129,0.91799 -13.89,1.432 -13.89,1.432 10.549,0.353 21.402,0.596 32.539,0.734 5.5589,-0.062 11.224,0.47599 16.938,0.72599 5.711,0.27901 11.4969,0.56301 17.352,0.851 5.8421,0.239 11.754,0.481 17.7321,0.72501 5.973,0.278 12.004,0.25999 18.094,0.89 12.177,0.97799 24.5839,1.891 37.1889,2.74499 6.3011,0.489 12.664,0.69901 19.053,1.37601 6.3831,0.705 12.814,1.41299 19.2889,2.129 12.944,1.46899 26.094,2.57899 39.3321,4.216 26.383,4.129 53.5069,7.129 80.5689,12.80901 6.792,1.25599 13.605,2.51699 20.4351,3.781 3.413,0.649 6.848,1.205 10.255,1.926 l 10.183,2.382 c 13.6,3.135 27.259,6.286 40.9449,9.44101 13.6021,3.474 27.096,7.49399 40.674,11.177 6.758,1.94901 13.609,3.59 20.2889,5.776 6.677,2.194 13.3521,4.387 20.016,6.57599 6.671,2.17999 13.332,4.35901 19.981,6.53299 l 9.972,3.24899 9.7791,3.70902 c 13.035,4.93899 26.0069,9.85501 38.886,14.73801 3.249,1.15499 6.395,2.543 9.538,3.92199 3.146,1.366 6.285,2.73001 9.4222,4.09201 6.2729,2.719 12.519,5.42701 18.736,8.12299 6.2081,2.71701 12.441,5.31299 18.5472,8.09299 6.021,2.957 12.0119,5.897 17.9651,8.82 48.104,22.542 91.424,48.784 130.259,73.35401 38.2451,25.5 71.646,50.061 98.427,72.22699 6.676,5.56799 13.031,10.871 19.043,15.88501 5.997,5.03698 11.7729,9.65399 16.7548,14.43597 10.167,9.34802 18.9231,17.396 26.075,23.97199 3.574,3.294 6.748,6.221 9.5,8.75598 2.6269,2.65899 4.8511,4.90899 6.6479,6.72699 3.596,3.63501 5.4839,5.54303 5.4839,5.54303 6.7581,8.48297 5.8201,9.59002 0.6001,6.57599 -2.6089,-1.50501 -6.292,-4.04102 -10.615,-7.20099 -2.1521,-1.60303 -4.4751,-3.33502 -6.9189,-5.15802 -2.438,-1.83802 -5.1521,-3.612 -7.833,-5.534 -10.8111,-7.60101 -22.521,-16.07501 -31.531,-22.61798 -2.2481,-1.63702 -4.3321,-3.15399 -6.1909,-4.508 -1.8831,-1.328 -3.615,-2.40802 -5.0101,-3.35101 -2.8049,-1.85998 -4.447,-2.94897 -4.447,-2.94897 6.732,6.04797 13.8479,13.48602 21.8291,21.50299 7.9441,8.05597 16.8169,16.63299 26.0401,26.05102 8.9729,9.65998 18.5249,19.94098 28.5219,30.70398 2.493,2.69599 5.084,5.357 7.5769,8.15802 2.4361,2.85401 4.8951,5.73798 7.377,8.64899 4.978,5.80701 10.0459,11.724 15.189,17.72998 2.58,2.99701 5.176,6.01501 7.791,9.05597 2.643,3.01703 5.2649,6.08398 7.709,9.328 5.0119,6.388 10.08,12.84998 15.195,19.36798 5.1211,6.50897 10.2891,13.07501 15.4839,19.677 4.8889,6.83197 9.8081,13.70203 14.739,20.59302 4.9441,6.88202 9.9031,13.78302 14.8631,20.68299 4.8969,6.94403 9.333,14.19897 14.0219,21.26098 9.2142,14.22699 18.732,28.16498 26.8379,42.64002 4.211,7.143 8.385,14.22699 12.513,21.22699 2.0681,3.5 4.124,6.98101 6.1679,10.43798 1.876,3.54999 3.742,7.07099 5.5931,10.57099 7.342,14.02801 14.695,27.53497 21.3789,40.643 6.268,13.31702 12.2548,26.03498 17.8789,37.98499 1.414,2.98797 2.802,5.92901 4.165,8.81702 1.3169,2.91302 2.447,5.841 3.646,8.677 2.3569,5.68902 4.625,11.16498 6.7949,16.39801 4.314,10.47497 8.355,19.95697 11.7281,28.37597 3.071,8.534 5.727,15.91303 7.8999,21.95899 4.3659,12.09596 6.8049,18.85696 6.8049,18.85696 -5.165,-12.994 -10.3511,-26.03799 -15.5381,-39.08096 -5.5991,-12.87299 -11.623,-25.57202 -17.3999,-38.289 29.354,65.95396 49.6311,130.09996 60.8201,177.68996 1.528,5.925 2.9839,11.578 4.363,16.932 1.3479,5.363 2.2241,10.509 3.262,15.286 1.969,9.575 3.6699,17.848 5.0639,24.625 1.3999,6.776 2.49,12.056 3.23,15.64 0.3789,1.792 0.658,3.162 0.7749,4.093 0.1441,0.929 0.218,1.4041 0.218,1.4041 0,0 1.531,9.8509 3.8601,24.839 1.178,7.494 2.553,16.27 4.0372,25.739 1.385,9.484 2.215,19.73 3.426,30.043 1.1479,10.311 2.3081,20.729 3.4131,30.677 0.6609,9.92 1.288,19.3669 1.851,27.7769 1.1221,16.7253 2.0789,29.0512 2.3411,32.1263 z"
                   style="fill:#8e735b;fill-opacity:1;fill-rule:nonzero;stroke:none"
                   id="path382" /></g></g></g></g></g></g><g
       id="g384"><g
         id="g386"
         clip-path="url(#clipPath390)"><g
           id="g392"
           transform="matrix(3.125,0,0,3.125,-17.541126,431.25)"><text
             xml:space="preserve"
             transform="translate(7.53125,167)"
             style="font-variant:normal;font-weight:normal;font-size:160.37px;font-family:WorkSans;-inkscape-font-specification:WorkSans-Regular;writing-mode:lr-tb;fill:#f4f4f4;fill-opacity:1;fill-rule:nonzero;stroke:none"
             id="text396"><tspan
               x="0 93.969437 192.58905 287.19992 382.61261"
               y="0"
               id="tspan394">KUARU</tspan></text></g></g></g></g></svg>
