<?xml version="1.0" encoding="UTF-8" standalone="no"?>
<!-- Created with Inkscape (http://www.inkscape.org/) -->

<svg
   version="1.1"
   id="svg198"
   width="598.95905"
   height="607.66315"
   viewBox="0 0 598.95905 607.66315"
   sodipodi:docname="KUARU.pdf"
   xmlns:inkscape="http://www.inkscape.org/namespaces/inkscape"
   xmlns:sodipodi="http://sodipodi.sourceforge.net/DTD/sodipodi-0.dtd"
   xmlns="http://www.w3.org/2000/svg"
   xmlns:svg="http://www.w3.org/2000/svg">
  <defs
     id="defs202">
    <clipPath
       clipPathUnits="userSpaceOnUse"
       id="clipPath220">
      <path
         d="M 0,0 H 375.00003 V 375.00751 H 0 Z"
         clip-rule="evenodd"
         id="path218" />
    </clipPath>
    <clipPath
       clipPathUnits="userSpaceOnUse"
       id="clipPath232">
      <path
         d="M 236.69763,-39.01133 398.02481,262.33231 110.3421,416.34598 -50.985077,115.00234 Z"
         id="path230" />
    </clipPath>
    <clipPath
       clipPathUnits="userSpaceOnUse"
       id="clipPath304">
      <path
         d="m 208.49707,337.66238 20.68478,-115.74911 125.61921,22.44859 -20.68479,115.74913 z"
         id="path302" />
    </clipPath>
  </defs>
  <sodipodi:namedview
     id="namedview200"
     pagecolor="#ffffff"
     bordercolor="#000000"
     borderopacity="0.25"
     inkscape:showpageshadow="2"
     inkscape:pageopacity="0.0"
     inkscape:pagecheckerboard="true"
     inkscape:deskcolor="#d1d1d1"
     showgrid="false" />
  <g
     id="g206"
     inkscape:groupmode="layer"
     inkscape:label="Page 1"
     transform="matrix(1.3333333,0,0,-1.3333333,67.981285,552.01508)">
    <g
       id="g214"
       transform="matrix(1,0,0,-1,0,375)">
      <g
         id="g216"
         clip-path="url(#clipPath220)">
        <g
           id="g222"
           transform="matrix(1.75784,0,0,1.75784,0,0.00375)">
          <path
             d="m 213.33,42.666 v 127.998 c 0,11.31572 -4.49516,22.16799 -12.49658,30.16942 C 192.83199,208.83484 181.97972,213.33 170.664,213.33 H 42.666 c -11.315727,0 -22.167991,-4.49516 -30.169418,-12.49658 C 4.4951549,192.83199 0,181.97972 0,170.664 V 42.666 C 0,31.350273 4.4951549,20.498009 12.496582,12.496582 20.498009,4.4951549 31.350273,0 42.666,0 h 127.998 c 11.31572,0 22.16799,4.4951549 30.16942,12.496582 C 208.83484,20.498009 213.33,31.350273 213.33,42.666 Z"
             style="fill:#4c5c68;fill-opacity:1;fill-rule:nonzero;stroke:none"
             id="path224" />
        </g>
      </g>
    </g>
    <g
       id="g226"
       transform="matrix(1,0,0,-1,0,375)">
      <g
         id="g228"
         clip-path="url(#clipPath232)">
        <g
           id="g234"
           transform="matrix(0.17883514,0.33404684,-0.33447769,0.17906581,261.24878,-89.976349)">
          <path
             d="m 140.25,469.34998 c 1.67,-1.35999 1.57001,15.07 0.91,32.11004 -0.74,8.52994 0.07,17.21997 0.26999,24 0.20001,6.77997 0.31001,11.50995 0.33,12.15998 -1.33999,8.61999 3,32 4.43001,45.29998 0.84,6.66004 2.22,10.59003 1.36,9.08002 -0.90498,-2.2417 -1.64038,-4.54816 -2.19999,-6.90002 -0.78,-4 -1.91001,-9.90998 -3.48002,-18 -1.91999,-10 -4.66999,-20.34998 -4.44,-29.09998 0,-1.20001 -0.46998,-5.79999 -1.06,-12.13 -0.38999,-6.32001 -1.78999,-14.37998 -1.11,-22.44001 C 136,487.31 136.64,471.17001 140.25,469.34998 Z"
             style="fill:#8e735b;fill-opacity:1;fill-rule:evenodd;stroke:none"
             id="path236" />
          <path
             d="m 363.59,843.89001 c -1.23999,-5.65997 39.89999,13.41999 11.64001,4.88001 C 373.54999,848.23999 364,845.72998 363.59,843.89001 Z"
             style="fill:#8e735b;fill-opacity:1;fill-rule:evenodd;stroke:none"
             id="path238" />
          <path
             d="m 122.68,631.56 c 3.23,11.94 8.07999,23.64001 12.66,35.54999 2.11,6 5.19,11.71002 8.26001,17.42004 l 9.04998,17.2699 4.48001,8.74005 c 1.6,2.85998 3.47001,5.58002 5.17,8.40002 3.46001,5.59998 6.84,11.28998 10.14,17.07001 6.06999,11.92999 14,22.69 20.37999,34.92999 8.59001,15.71997 -4.60998,10.94 -0.49998,19.66004 7.18998,12.50995 16.42,25.81994 28.22999,37.57995 6.06998,5.72003 12.48999,11.35004 19.11002,16.90003 3.34996,2.71997 6.56998,5.6499 10.13998,8.13995 l 10.93999,7.20007 22,13.99994 c 7.55002,4.17005 15.23001,7.92005 22.57001,11.86994 14.44,8.33008 29.17001,14.33001 41.89001,21.40008 4.12998,2.06 8.56,7.48004 14,11.94 5.32999,4.68 11.13999,9.71003 16.85996,12.78998 17.45004,10.29999 37.07003,14.54999 56.65002,19.83008 10.00003,1.88995 20.17001,3.15985 30.46002,4.81989 l 15.60001,2.42004 16,1.46002 16.78998,1.59998 c 5.87695,0.68347 11.79675,0.92749 17.71002,0.72998 12.09998,-0.22003 24.76001,-0.56995 37.82996,-1.14997 l 40.07,-5.64001 c 13.62,-2.40991 27.25,-6.47998 41.26001,-9.84003 55.47998,-15.76001 111.07001,-43.69995 159,-78.43994 11.46002,-7.59002 16.39002,-11.74005 17.78009,-12.07001 1.3899,-0.33007 -1,2.89997 -6.00012,8 -5.21997,4.76001 -12.99994,11.37 -21.67993,18.46998 -4.38001,3.48999 -8.83997,7.34008 -13.60004,10.7301 l -14.52002,9.3399 c -69.16992,44.09998 -142,65.19995 -213,67.31 -71.30917,2.33673 -142.05053,-13.40491 -205.63995,-45.76001 -0.66003,-0.35998 -15.70001,-7.79993 -30.45001,-14.65991 -7.53,-3.15009 -14.33002,-7.41998 -19.60001,-9.94 -5.26999,-2.52002 -8.70001,-3.90009 -8.67001,-2.72998 0,1.42999 5,5.60992 12.79001,11.25988 4.40493,3.26459 9.06683,6.16742 13.94,8.68006 l 17,9.21997 c 11.64999,6.77002 24.82001,11.71002 36.11001,16.33001 l 15.37,6.21998 c 4.47998,1.85003 8.44,2.73999 11.19998,3.73999 55.58002,19.93005 123.11002,28 187.82999,20.05999 64.84002,-7.44995 125.60003,-30.29998 172.31,-57.25995 43.80999,-24.27002 79.87994,-55.26001 110.88,-87.53002 31.47003,-32.16999 54.87,-68.56 74.37994,-105.20002 l 13.00007,-28.13006 c 2.18676,-4.62671 4.04473,-9.40186 5.55999,-14.28992 l 4.94001,-14.46002 c 7.15002,-19 11,-38.88996 15,-58.47998 l 1.44995,-7.34003 0.80005,-7.46997 1.47003,-14.90997 1.27997,-14.89002 c 0.54223,-4.95025 0.71942,-9.93371 0.53002,-14.91003 -0.52008,-20 -0.52008,-39.81998 -4.46002,-59.54999 -0.76001,-4.68002 -1.94,-10.00003 -3.45001,-15.73001 L 979.46002,463.44 c -1.11004,-3 -2.44,-6 -3.75995,-9.11001 -5.45007,-12.27002 -11.53009,-25 -18.41009,-36.07999 -3.92999,-5.64999 -9.70996,-17.91 -17.69995,-25.92001 -7.99005,-8.00998 -18.08008,-11.51999 -31.07001,-1.40998 -2.63995,2 -1.40002,8.45996 2.19,17.54999 3.59003,9.09 9.94995,20.88001 14.74994,34.32001 2.72003,6.72998 5.55005,13.69003 8.34003,20.6 2.79004,6.90998 4.44,14.12998 6.56,21 3.89001,13.65 7.32,26.26999 7.32,35.07001 0.56995,14.71997 2.16999,29.77997 0.60993,44.38001 -0.99994,14.64996 -1.56,29.25995 -4.62995,42.82995 C 939.45001,634.27002 931,658.56 923.35999,677.40997 c -8.07996,16.40003 -15,33.29004 -24.81,48.56 -4.67999,7.75006 -8.91999,15.75 -13.92999,23.24005 l -15.65998,22 c -2.66003,3.62 -5.10003,7.38996 -7.92004,10.87 l -8.75006,10.17004 -17.4599,20.27991 L 815.67999,831 c -6.35992,6.16998 -12.66003,12.38 -19.78003,17.59991 C 741.53998,893.45996 677.17999,924 611.62,936.41998 c -62.87,11.81 -128.66999,6.20002 -190.53003,-14.25995 -7.68998,-2.73004 -15.59998,-4.76995 -23.12,-8.11004 l -22.57996,-10.00006 -11.28002,-5.08991 -10.87,-6.13 c -7.19998,-4.08667 -14.45331,-8.19666 -21.75998,-12.33002 -28,-18.42993 -55.53,-38.67999 -79.54001,-64 -5.15001,-5.35992 -10.63,-10.42999 -15.63,-16.06 L 221.79001,782.90002 C 211.49998,771.63007 203.48999,758.23999 194.41,745.59003 189.66998,739.39001 186.14999,732.29999 182.22,725.46002 178.28999,718.62 174.41998,711.72998 170.49001,704.79993 167.24333,697.53333 163.97,690.22668 160.67,682.88 c -3.15,-7.39001 -7,-14.47998 -9.26,-22.33001 -22.1,-60.76001 -32.17,-128.60999 -23.77,-195.62998 4.68001,-43.84002 19.85,-91.67001 43.27,-136.07 23.28,-44.59 54.71,-85.52001 88.73999,-120.18001 5.47001,-6.65 13.05002,-11.76999 20,-17.7 7.23001,-5.57001 14,-11.88 21.42002,-16.34 14.5,-9.46 26.38998,-19.39 32.92999,-26.47 1.45999,-1.79001 -2.23999,-0.51001 -8.94,2.48 -6.4,3.55 -15.51001,9.28 -25.4,15.31 -10.20001,5.62001 -19.70001,13.69999 -28.51999,19.74 -8.82,6.04 -16.31001,11 -20.33001,13.41001 l -20.58,19 c -6.9,6.39999 -12.72001,14 -19.19001,21 L 201.53,249.88 c -3.09,3.68 -5.72,7.74 -8.62,11.60999 -5.6,7.88001 -11.50999,15.62 -16.91999,23.75 -20.93001,33.07001 -37.51001,69.56 -49.67002,107.84 -11.24,38.61001 -17.05999,78.85 -18.26999,119.22 0.0301,40.19903 4.94271,80.24566 14.63,119.26001 z m 58.18,-345.88001 c 2.72,-0.38998 0.71001,13.86002 -2.85001,14.38001 -2.84997,0.51001 -0.76998,-13.87 2.85001,-14.38001 z M 171,304 c 0,0 -1.31,16.66 -4.32001,17.17999 C 166.31,321.35001 160.07001,306 171,304 Z m -12.38001,24.76001 c 2.65001,-0.65002 2.65001,10.61999 0,11.29999 -2.64999,0.67999 -2.75,-10.57999 -0.05,-11.29999 z M 149.16,351 c 2.69001,-0.76001 2.73999,10.20001 0.42,11.17999 -1.28,0.44001 -2.18001,-2.15997 -2.42,-5 -0.08,-2.75998 0.65,-5.73999 2,-6.17999 z m -28.23999,95.89996 C 127,443.22 117.92,488.12997 119.75,457.19 c 0.08,-1.33996 -0.01,-9.58996 1.17001,-10.29004 z M 114.61,526.20001 c 1.92,-1.73999 6,5.56 4.93,6.57001 -1.91001,1.79999 -6.04001,-5.53003 -4.93,-6.57001 z m 45.75999,177.07001 c 25.93001,44.12994 54.18001,82.17999 83.25002,117.5899 6.15999,5.24006 10.07999,8.00007 16.50999,13.48011 18,13.14996 16.54999,15 8.82999,11.32995 -8,-3.28998 -20.78,-14.27997 -25.33998,-24.81006 -37.44003,-33.51989 -69.24001,-75.18994 -83.25002,-117.5899 -16.87999,-20.53003 6.42,-16.21002 0,0 z m 115.42002,152.23993 c 0.28998,2.84003 7.5,4.59997 14.56998,6.48004 C 297.62,863.62 305.06,864.88 305.69,868.61993 c -4.87799,0.0513 -9.74984,-0.36047 -14.54999,-1.22992 -7.30001,-1.67004 -14.66,-5.57 -15.35,-11.88006 z m 32,24.13006 c -0.65,-3.75 12.17999,3.15998 20.72,7.66999 8.75998,4.08001 12.41998,7.80005 -7.92001,-0.77002 -1.91001,-0.92999 -12.38999,-4.82996 -12.81,-6.89997 h 0.01 z m 34.31998,21.19001 c -0.81,-2.79999 13.99996,-1.92005 15.08001,1.66998 0.95999,2.89001 -13.97,1.96002 -15.08999,-1.66998 h 0.01 z m 29.32,15.83996 C 368.72,909.94 414.06,928.35999 381.98996,920.02002 380.59,919.65997 372,918 371.41998,916.66998 h 0.01 z m 37.93,15.39008 c -3.43,-6.49005 58.72,10.68994 14.53002,3.13995 -2.14001,-0.36999 -13.57,-1.20001 -14.54,-3.13995 h 0.01 z M 460,945.25 c -2.04999,-3.17999 12.85004,-1.67993 22.70999,-0.37 5,0.34998 8.67001,0.89997 8.31,1.43 -0.35001,0.27002 -4.87,1.56 -16.14999,0.65008 C 472.67001,946.78998 461.17999,947 460,945.25 Z M 840.53998,838.83997 c -2.92999,-0.17994 2.05005,-11.37995 5,-11.23999 2.95001,0.14001 -1.98999,11.40002 -5,11.23999 z m 15.83996,-17.06995 c -2.67993,0 0.0801,-8.78003 1.65003,-8.81006 2.73004,-0.09 -0.03,8.76001 -1.65003,8.81006 z"
             style="fill:#8e735b;fill-opacity:1;fill-rule:evenodd;stroke:none"
             id="path240" />
          <path
             d="m 145,600 c 2.67,-3.09998 8.2,24.23999 19,52 1.24,3.5 2.32001,7.09998 3.67,10.56 1.55,3.38 3.08,6.73999 4.58002,10 L 180.58,691 c 2.01969,4.78827 4.39638,9.41797 7.11,13.84998 l 4.06,7.15997 c 3.78073,6.65448 8.07016,13.00677 12.83,19.00006 4.45,4.93005 8.24001,9 10.74001,12.57007 4.69,6.72998 6.14999,12.31994 8.22998,17.30993 2.32001,4.76001 5.51001,8.74006 12.93001,12.32996 -2.26001,-1.12994 -7,-24.29999 10.85,-1.5 0.75,0.82001 3.17,16.19 8.67,14.42004 -9.42,3 -19.08,-4.94 -28,-14.79998 -2.22,-2.49005 -4.39,-5.08002 -6.44,-7.73004 l -5.17,-8.43 c -3.27,-5.46002 -6.17001,-10.44 -8.67,-14 -2.50999,-3.71002 -5.33,-7.32 -7.68001,-11.28998 L 193.31,717.65997 c -4.30001,-8.26996 -9.34999,-16 -12.77001,-24.18994 -3.41999,-8.19 -6.73999,-15.80005 -9.68998,-22.73004 -1.45002,-3.45001 -3,-6.63 -4.15001,-9.69 L 163.86999,652.5 C 162.39999,648.15997 155.94,637.19 150.31,626.15997 145.86,614.81 142.38,603.44 145,600 Z"
             style="fill:#8e735b;fill-opacity:1;fill-rule:evenodd;stroke:none"
             id="path242" />
          <path
             d="m 388.51001,858.34009 c -1.99997,-6.68012 49.28,13.56988 12.16,3.76996 -1.79001,-0.46997 -11.57,-1.89008 -12.16,-3.76996 z"
             style="fill:#8e735b;fill-opacity:1;fill-rule:evenodd;stroke:none"
             id="path244" />
          <path
             d="m 417.78998,871.76001 c 2.28,4.93994 26.26001,-4.99994 29.06003,1.63995 -4.06919,1.5434 -8.28891,2.65613 -12.59,3.32001 -6.67999,0.97998 -14.19003,0.53003 -16.47003,-4.95996 z"
             style="fill:#8e735b;fill-opacity:1;fill-rule:evenodd;stroke:none"
             id="path246" />
          <path
             d="m 354.67001,863.69 c -0.36004,-1.53003 -5.42001,-5 -12.92001,-9.56 -7.14001,-5.25 -16.67001,-11.67993 -26.67999,-18 -19.31,-13.84008 -39.52002,-29.06994 -46.61002,-34.21002 10,6.18 -3.56,-2.07 -14.78001,-7.88 -5.75998,-2.73999 -10.17,-5.62 -11.10997,-5 -0.94001,0.61999 1.67001,4.72998 12.50999,13.18994 L 270.76001,815 c 7.66,2.33002 14,4.09998 17.69,6.56006 3.84,2.29999 5.60999,4.58996 5.45999,5.89996 -0.14999,1.31006 -2.23001,1.63001 -6.19,0 -2.56491,-1.14642 -5.01581,-2.53259 -7.32001,-4.14001 -3.57489,-2.30493 -6.81817,-5.08734 -9.63998,-8.27002 0.884,5.83209 4.34766,10.95593 9.42999,13.95001 4.23001,2.54999 9,3.51001 13.32001,4.16998 8.75,1.22003 15.25,1.75 14,11.76001 0.44998,-3.73999 -9,-0.72998 -8.13001,0.16999 10.25,10.27002 16.63999,6.39001 30,16.52002 0,-4.54999 6.29001,-1.16999 13,1.09002 6.71,2.25989 13.24,4.83002 12.29001,0.97998 z M 310.5,846.56 c -1,-6.90998 36.55997,17.71002 9,4.81 -1.22,-0.55005 -8.79999,-3.47999 -9,-4.81 z"
             style="fill:#8e735b;fill-opacity:1;fill-rule:evenodd;stroke:none"
             id="path248" />
          <path
             d="m 349.75,124.9 c 0,0 -11,13.51 -13.73999,12.27 -0.38001,-0.05 3.59998,-16.62 13.73999,-12.27 z"
             style="fill:#8e735b;fill-opacity:1;fill-rule:evenodd;stroke:none"
             id="path250" />
          <path
             d="m 321.35999,140.08 c 1.26001,0.49001 0.6,2.41 -0.53,4.13001 -1.06,1.87999 -2.56998,3.58999 -3.28,3.33999 -2.47,-0.79001 2.21002,-8.24 3.81,-7.47 z"
             style="fill:#8e735b;fill-opacity:1;fill-rule:evenodd;stroke:none"
             id="path252" />
          <path
             d="m 250.8,199.04999 c 2.19142,-5.90113 5.74034,-11.20395 10.36,-15.47998 3.15,-2.82999 5.54001,-3.63001 6.44999,-2.93003 0.91,0.70002 0.38,2.91001 -2.25998,6.05002 -2.64002,3.14 -7.67002,6.89002 -14.55001,12.35999 z"
             style="fill:#8e735b;fill-opacity:1;fill-rule:evenodd;stroke:none"
             id="path254" />
          <path
             d="M 871.78003,434.78998 C 864.95001,423.67999 861.27002,439.97 862.31,418.62 c 0.16998,-3.54001 6.78003,7.39999 11.38,16 1.57611,2.75503 2.70679,5.74185 3.34992,8.85 -0.18994,0.84998 -1.03992,-1.47 -5.25989,-8.68002 z"
             style="fill:#8e735b;fill-opacity:1;fill-rule:evenodd;stroke:none"
             id="path256" />
          <path
             d="m 887.59998,469.32001 c -16.29999,-14.06 -0.35004,-30.16001 0,0 z"
             style="fill:#8e735b;fill-opacity:1;fill-rule:evenodd;stroke:none"
             id="path258" />
          <path
             d="m 875.72998,418 c -19.99994,-7 14.16003,5 0,0 z"
             style="fill:#8e735b;fill-opacity:1;fill-rule:evenodd;stroke:none"
             id="path260" />
          <path
             d="m 358.85999,879.62 c -8.38996,-6.58002 -30.06998,-6.31006 -29.46998,-18 6.10999,6.66998 21.31,8.64001 30.35999,10.91998 9.14001,2.08008 13.25,3.69 -0.89001,7.08002 z"
             style="fill:#8e735b;fill-opacity:1;fill-rule:evenodd;stroke:none"
             id="path262" />
          <path
             d="m 887.59998,469.32001 c 7.91003,7.32998 6.78002,15.22998 4.72998,17 -2.32996,1.88998 -5.57996,-1.94001 -4.72998,-17 z"
             style="fill:#8e735b;fill-opacity:1;fill-rule:evenodd;stroke:none"
             id="path264" />
          <path
             d="m 912.72992,438.92999 c 3.33343,7.88001 6.57013,15.97669 9.71008,24.29001 1.62635,4.10874 2.90424,8.34705 3.82001,12.67005 l 3.08002,12.99993 c 4.72998,17.5 5.76996,35.64005 7,54.21 0.24005,36.86004 -4.06006,75.5 -17.11005,112 L 914.77997,669 909,682.34003 c -4,8.86999 -7.58002,18.00006 -12.15997,26.65997 -9.68,17 -19,34.39001 -31.14002,50 -10.85998,16.51001 -24.73004,30.65997 -37.59009,45.57996 -6.99993,6.93005 -14.31994,13.55011 -21.44989,20.34002 -3.63,3.31 -7.07006,6.86005 -10.86004,10 l -11.64002,9.06 c -30.43005,25.32001 -66.54992,44.69995 -104,59.48999 l -28.51996,9.99994 c -9.65002,2.77008 -19.53002,4.7301 -29.23999,7.07007 l -14.58001,3.31006 -14.79999,1.83001 c -9.85004,1.09998 -19.61005,2.45996 -29.35004,3.18995 -19.59997,-0.0701 -38.88,1.22991 -57.66998,-1.58002 -9.37997,-1.19 -18.72,-1.5199 -27.76001,-3.5 l -26.70996,-5.82001 c -8.83002,-1.56995 -17.13001,-5 -25.42004,-7.60998 -8.20997,-2.95002 -16.43998,-5.22004 -24.12,-8.70997 L 379.57001,891.12 c -3.62,-1.78003 -7.25998,-3.38001 -10.73001,-5.27002 l -10,-6.16999 11.16,5.68 11.71002,4.69 23.73001,9.54999 c 8.15995,2.64001 16.5,4.93005 24.84998,7.46002 l 12.60998,3.72998 c 4.24002,1.15002 8.61005,1.76001 12.93,2.67004 l 26.25,5.07001 c 8.88,1.1499 17.87997,1.75 26.92001,2.65997 l 13.63,1.25 c 4.54999,0.19995 9.13001,0 13.71998,0 l 27.73004,-0.27002 27.80999,-3.07 14,-1.60999 13.82001,-3 27.82996,-6.22998 27.20001,-9.16998 13.6601,-4.71003 13.13983,-6.04998 c 8.7301,-4.13001 17.6701,-8 26.27002,-12.44001 16.53997,-10.15002 33.92004,-19.29003 49.00006,-31.79003 l 11.70001,-8.87006 5.83997,-4.44989 5.39001,-4.99994 21.45001,-20.13007 c 7,-6.83001 13.06,-14.63 19.59003,-21.94 l 9.56995,-11.16003 c 2.93005,-3.92005 5.67004,-7.99994 8.49993,-12.00006 23.61011,-31.31995 40.3501,-67.17993 52.86011,-103.4599 L 920,629.47998 c 2.13,-9.31 3.60999,-18.76996 5.34998,-28.07001 0.80004,-4.65997 1.72009,-9.28997 2.38,-13.94995 l 1,-14.11004 c 0.52002,-9.38996 1.51001,-18.64997 1.48999,-27.93 -1,-18.61999 -0.88989,-36.89999 -4.72998,-54.73999 -1.72003,-8.89999 -2.59003,-17.77002 -5.11999,-26.35998 -2.52997,-8.59 -5.10993,-16.96002 -7.64008,-25.39002 z"
             style="fill:#8e735b;fill-opacity:1;fill-rule:evenodd;stroke:none"
             id="path266" />
          <path
             d="m 795.64008,785.31 c -2.80005,-0.45001 1.13995,-10.11994 3.56994,-10.11994 2.87,0.33997 -0.66003,10.53986 -3.56994,10.11994 z"
             style="fill:#8e735b;fill-opacity:1;fill-rule:evenodd;stroke:none"
             id="path268" />
          <path
             d="M 899.75,528.71997 C 896.95001,530.63 896.09003,517.87 896.35999,507.88 c -0.76001,-9.99996 0,-17.44 3.21002,-4.75003 0.61993,-0.54998 3.69,23.07004 0.17999,25.59 z"
             style="fill:#8e735b;fill-opacity:1;fill-rule:evenodd;stroke:none"
             id="path270" />
          <path
             d="m 893.19,452.56998 c -1.86999,1.90002 -7.92993,-6.53998 -6,-8.50995 1.93006,-1.97003 7.87,6.49997 6,8.50995 z"
             style="fill:#8e735b;fill-opacity:1;fill-rule:evenodd;stroke:none"
             id="path272" />
          <path
             d="m 107.73,397.32999 c 2.56,-1.29999 2.7,3.92004 1.65,11.59997 -0.83,7.73004 -3.86,17.75003 -4.9,26.80005 -2.93,17.87 -6.610005,30.40997 -4.670002,4.62003 0,-0.30005 0.11,-3.00006 0.250002,-6.94004 0.1,-2 0.22,-4.25 0.34,-6.69 0.38,-2.39999 0.77,-5.00003 1.18,-7.51999 1.71,-10.29004 3.98001,-20.79001 6.15,-21.87002 z"
             style="fill:#8e735b;fill-opacity:1;fill-rule:evenodd;stroke:none"
             id="path274" />
          <path
             d="m 853.53003,713.39996 c 0,0 0.42999,-1.13995 1.33997,-3.14996 l 3.88,-8.38 5.62006,-11.93 c 1.93994,-4.45001 3.49994,-9.5 5.36993,-14.44 1.87,-4.94 3.65002,-10 5.40009,-14.77002 l 2.56994,-7 1.77997,-6.64996 c 2.21008,-8.42005 3.92999,-14.73004 4.56,-16.73999 1.45843,-5.28553 2.59057,-10.65564 3.39001,-16.08002 1,-8.10004 2.19,-18 3.69,-27.78003 1,-4.82996 1.12,-9.77997 1.53992,-14.39996 0.42011,-4.62 0.92005,-9 1.55005,-12.75 1.25,-7.60004 3.06006,-13.11005 5.37012,-14.57001 0.56988,-0.29004 0.56988,8.52002 0.46997,18.38 -0.10004,9.85999 -0.14008,20.78998 -1.20007,24 -1.61994,7.87 -3.07996,15 -4.5,21.91999 -0.71991,3.45001 -1.43,6.84997 -2.13001,10.22998 -1.04999,3.30005 -2.08997,6.59002 -3.1499,9.92999 l -6.69013,21.20001 C 880.12,658.06 876.12,665.76001 872.5,674.90997 c -3.84998,11.67005 -14.07001,37.67011 -18.96997,38.48999 z"
             style="fill:#8e735b;fill-opacity:1;fill-rule:evenodd;stroke:none"
             id="path276" />
          <path
             d="m 92.089996,476.29999 c 3.850006,-2.91999 4.25,18.08001 3.620011,34.71002 0.839996,16.61999 0,29.29999 -3.380005,9.22998 C 90.910004,518.94 89,478.79999 92.089996,476.29999 Z"
             style="fill:#8e735b;fill-opacity:1;fill-rule:evenodd;stroke:none"
             id="path278" />
          <path
             d="M 92.099991,560.79999 C 88.459999,565.34003 107.23,586.63 102.4,592.42999 c -3.121764,-3.72027 -5.868445,-7.73974 -8.200011,-12 -3.609993,-6.66998 -6.199989,-14.82 -2.099998,-19.63 z"
             style="fill:#8e735b;fill-opacity:1;fill-rule:evenodd;stroke:none"
             id="path280" />
          <path
             d="m 105.1,633.5 c 1.52,-2.28998 6.99999,4.37 6.32,5.65002 -1.48,2.34998 -7.23,-4.26001 -6.32,-5.65002 z"
             style="fill:#8e735b;fill-opacity:1;fill-rule:evenodd;stroke:none"
             id="path282" />
          <path
             d="m 112.88,654.26001 c 1.41,-2.53003 11.33999,8.67999 9.59,12 -1.36001,2.73999 -11.35,-8.66003 -9.59,-12 z"
             style="fill:#8e735b;fill-opacity:1;fill-rule:evenodd;stroke:none"
             id="path284" />
          <path
             d="m 125.89,684.78003 c 0.49999,-0.81006 8.82001,17.84991 19,37.73993 l 16.64,28.00006 3.55,5.94 c 1.27001,1.74994 2.45,3.36005 3.52001,4.82001 l 4.84999,6.63995 c 24,32.33002 -17.48,-18.82995 -21.75,-29.88 -1,-1.69995 -3.61,-5 -6.9,-9.14997 L 139.42999,722 C 137.72,719.45001 136.13,716.66998 134.52,713.88007 c -6.36,-11.15009 -11.61,-23.12006 -8.63,-29.10004 z"
             style="fill:#8e735b;fill-opacity:1;fill-rule:evenodd;stroke:none"
             id="path286" />
          <path
             d="m 179.17999,768.07007 c 0.52001,-2.59009 8.31,1.35992 8,2.87994 -0.47999,2.64997 -8.28999,-1.33001 -8,-2.87994 z"
             style="fill:#8e735b;fill-opacity:1;fill-rule:evenodd;stroke:none"
             id="path288" />
          <path
             d="m 912.72992,438.92999 c -7.40985,-4 -7.40985,-10.22998 -5.87994,-12.44998 1.53002,-2.22003 6.36004,-0.48001 5.87994,12.44998 z"
             style="fill:#8e735b;fill-opacity:1;fill-rule:evenodd;stroke:none"
             id="path290" />
          <path
             d="m 181,790.71991 c -0.06,-5.41998 37.33002,33.6701 10.23,11.00006 C 190.41998,801.03009 187.71001,798.87 185.22998,796.62 182.75,794.37 180.85001,791.71002 181,790.71991 Z"
             style="fill:#8e735b;fill-opacity:1;fill-rule:evenodd;stroke:none"
             id="path292" />
          <path
             d="m 218,833.56 c 0,-6.21002 40.78,29.66998 11.66998,9.59997 C 227.94,842 218,835.57996 218,833.56 Z"
             style="fill:#8e735b;fill-opacity:1;fill-rule:evenodd;stroke:none"
             id="path294" />
          <path
             d="m 247.88,862.91998 c 0,0 17.85999,3.91004 18.19001,6.99994 -0.84021,0.32959 -1.72187,0.54163 -2.62,0.63007 -1.96127,0.30444 -3.95108,0.38159 -5.93002,0.23004 C 253.12,870.41998 248.47,868.51001 247.88,862.91998 Z"
             style="fill:#8e735b;fill-opacity:1;fill-rule:evenodd;stroke:none"
             id="path296" />
        </g>
      </g>
    </g>
    <g
       id="g298"
       transform="matrix(1,0,0,-1,0,375)">
      <g
         id="g300"
         clip-path="url(#clipPath304)">
        <g
           id="g306"
           transform="matrix(0.00747528,-0.0418306,0.04187167,0.00748262,208.50003,337.64581)">
          <path
             d="m 2766.5789,1366.8051 c 0,0 -1.1502,-13.0911 -2.877,-32.7281 -0.4687,-4.896 -0.9748,-10.198 -1.512,-15.807 -0.5278,-5.605 -1.0808,-11.51 -2.1428,-17.584 -1.8862,-12.1619 -3.9692,-25.097 -6.1282,-37.982 -1.863,-12.918 -5.1738,-25.648 -7.854,-37.583 -2.811,-11.919 -5.354,-23.016 -7.8188,-32.4571 -5.6812,-18.7019 -9.4702,-31.1679 -9.4702,-31.1679 0,0 -1.0298,-3.317 -2.8379,-9.121 -0.9099,-2.891 -2.0191,-6.404 -3.2849,-10.4351 -1.2561,-4.0279 -3.104,-8.4759 -4.8982,-13.3638 -3.732,-9.6961 -8.0899,-21.0091 -12.7539,-33.1301 -1.2019,-3.009 -2.3389,-6.0839 -3.656,-9.149 -1.388,-3.04 -2.791,-6.118 -4.211,-9.22 -2.854,-6.174 -5.7541,-12.441 -8.6579,-18.708 -2.929,-6.2199 -5.8601,-12.438 -8.7422,-18.5589 -2.8948,-6.0961 -6.3198,-11.8951 -9.3418,-17.5781 -6.2271,-11.233 -12.041,-21.7139 -17.021,-30.70197 -5.1721,-8.854 -10.0161,-15.97803 -13.1721,-21.04102 -3.232,-5.01904 -5.0801,-7.888 -5.0801,-7.888 0,0 -1.854,-2.85998 -4.637,-7.14898 -2.854,-4.25104 -6.3379,-10.03406 -10.3889,-15.547 -8.1079,-10.94403 -16.217,-21.89105 -16.217,-21.89105 l -0.016,-0.022 0.016,0.022 c -6.4571,-10.54999 -12.3731,-20.68903 -18.8599,-29.84796 -6.208,-9.24903 -12.0842,-17.99701 -17.5911,-26.19605 -5.2641,-8.29199 -11.09,-15.50299 -16.0161,-22.37598 -4.99,-6.81298 -9.5639,-13.05603 -13.686,-18.68298 -2.0439,-2.81103 -3.9758,-5.46899 -5.793,-7.966 -1.9399,-2.41699 -3.7578,-4.677 -5.4489,-6.776 -3.3609,-4.20203 -6.2149,-7.76398 -8.522,-10.65198 -4.583,-5.77106 -7.009,-8.82605 -7.009,-8.82605 -2.9729,-1.646 -7.9571,-5.74194 -14.4,-11.578 -6.7771,-5.61499 -15.166,-12.86707 -24.4541,-21.15497 -4.612,-4.14899 -9.4938,-8.54401 -14.571,-13.11206 -5.2788,-4.36695 -10.762,-8.90088 -16.3628,-13.53797 -11.2561,-9.16497 -22.3301,-19.143 -34.4101,-27.88501 -5.8731,-4.47497 -11.7049,-8.91894 -17.42,-13.27197 -5.739,-4.289 -11.0561,-8.71997 -16.748,-12.44501 -11.0369,-7.643 -21.242,-14.71301 -29.9451,-20.74298 -2.1509,-1.49902 -4.2109,-2.93499 -6.167,-4.29803 -2.0368,-1.27295 -3.9658,-2.47901 -5.7759,-3.60999 -3.6091,-2.25897 -6.746,-4.22198 -9.323,-5.83502 -5.124,-3.22497 -8.03,-5.05395 -8.03,-5.05395 9.4219,4.638 17.5769,8.5 24.553,11.62896 6.7749,3.331 12.301,5.99701 16.875,7.87 9.115,3.781 14.137,4.64703 16.0249,3.21203 1.895,-1.42999 0.6611,-5.15802 -2.6709,-10.45898 -1.668,-2.64905 -3.8569,-5.68903 -6.447,-9.02203 -2.6441,-3.27802 -5.447,-7.08399 -8.9761,-10.62702 -6.8879,-7.26098 -14.9028,-15.23895 -23.0239,-23.138 -4.115,-3.893 -8.034,-8.00799 -12.261,-11.55798 -4.2019,-3.581 -8.283,-7.05701 -12.125,-10.32898 -7.7449,-6.49402 -14.5191,-12.17102 -19.3569,-16.22699 -4.8011,-4.112 -7.949,-6.25104 -7.949,-6.25104 C 2218.864,508.65903 2152.0659,460.815 2079,418.98001 c -4.4661,-2.81802 -9.2209,-5.06302 -13.8479,-7.59701 l -13.9841,-7.46201 -14.0211,-7.54196 -7.0219,-3.80005 -7.189,-3.44699 c -9.608,-4.62699 -19.2329,-9.26102 -28.863,-13.901 l -7.239,-3.51996 -3.6209,-1.76703 -3.6921,-1.57599 -14.8079,-6.32602 -29.7091,-12.84799 -30.338,-11.461 -15.211,-5.82101 -3.811,-1.46399 -3.863,-1.258 -7.73,-2.52801 c -10.3362,-3.418 -20.6681,-6.83399 -30.988,-10.24698 l -7.764,-2.59601 -7.8511,-2.20401 -15.7289,-4.40198 c -10.504,-2.888 -20.9789,-6.07602 -31.541,-8.806 -10.6399,-2.474 -21.258,-4.94201 -31.857,-7.40902 -5.322,-1.25599 -10.64,-2.51099 -15.95,-3.76499 -5.3131,-1.306 -10.689,-2.047 -16.034,-3.10699 -21.416,-3.86801 -42.823,-8.444 -64.3569,-10.92902 -10.7861,-1.51498 -21.5371,-3.02798 -32.2491,-4.53299 -10.745,-1.12399 -21.487,-1.98901 -32.2239,-3.02301 -85.8521,-7.884 -170.8861,-6.51599 -250.9162,2.71701 -80.0159,9.267 -154.9318,26.22699 -221.2178,47.01599 -66.3141,20.82001 -123.84911,45.461 -171.11315,68.13602 -23.24994,11.905 -44.71893,22.26199 -62.46094,32.90396 -17.99994,10.30002 -33.72198,18.98004 -45.77392,27.04202 -12.29609,7.86002 -21.78406,13.92597 -28.19806,18.025 -3.21503,2.07104 -5.659,3.64602 -7.29908,4.70202 -1.58789,1.11798 -2.39795,1.68897 -2.39795,1.68897 -10.716,7.89902 -21.40893,15.77902 -32.07702,23.64502 -5.30396,4 -10.81494,7.80301 -15.95801,11.98099 -5.15698,4.18402 -10.30896,8.362 -15.45489,12.53601 -10.2511,8.42102 -20.75007,16.65002 -30.82508,25.29797 -9.92096,8.86005 -19.82,17.70203 -29.69702,26.52301 -4.89496,4.48102 -10.034,8.76502 -14.73096,13.427 -4.73803,4.646 -9.46899,9.28601 -14.19403,13.92102 -9.41296,9.33399 -19.05298,18.526 -28.289,28.05298 -9.02801,9.75 -18.03601,19.47699 -27.02301,29.18201 -4.46399,4.90399 -9.09497,9.70404 -13.42401,14.71399 -4.271,5.06799 -8.534,10.13 -12.79199,15.18701 -8.53296,10.20001 -17.04498,20.37604 -25.53699,30.52801 -8.04199,10.55597 -16.065,21.08399 -24.06799,31.58991 -4.013,5.29211 -8.01901,10.58111 -12.02097,15.8631 -3.84002,5.38208 -7.52804,10.85699 -11.29507,16.29492 -7.50498,10.95404 -14.99295,21.87903 -22.46195,32.78009 -7.26104,11.05896 -13.992,22.40405 -20.99505,33.63696 -6.85697,11.30103 -14.12296,22.45001 -20.26297,34.10297 -6.379,11.60504 -12.74198,23.18402 -19.09195,34.73596 l -4.758,8.71106 c -1.56207,2.91303 -2.93005,5.90106 -4.40304,8.84802 -2.89496,5.93201 -5.78601,11.85401 -8.67402,17.77301 -46.32498,94.7889 -81.44497,194.945 -102.81298,297.095 -21.68601,102.097 -31.308,205.74 -28.86701,308.7959 0.121,6.4513 0.24201,12.895 0.36502,19.3301 0.10498,6.4429 0.72498,12.8221 1.07898,19.2419 0.879,12.8451 1.758,25.6621 2.63401,38.4441 0.53399,6.395 0.764,12.848 1.57699,19.189 0.75202,6.3601 1.50302,12.7181 2.25501,19.062 1.56799,12.736 3.134,25.441 4.69601,38.113 0.702,6.375 1.811,12.6479 2.90198,18.925 1.09201,6.289 2.181,12.571 3.268,18.842 2.24701,12.581 4.487,25.1279 6.724,37.644 2.819,12.41 5.633,24.782 8.439,37.127 1.44,6.1869 2.88202,12.363 4.319,18.534 1.46502,6.171 2.823,12.3789 4.634,18.419 25.95401,97.827 62.857,191.4979 108.814,278.7291 45.94702,87.2559 100.92001,168.0818 162.73498,240.9648 61.80902,72.906 130.45606,137.8821 203.64606,194.0591 73.18799,56.199 150.91894,103.594 230.83497,141.9341 79.923,38.366 162.01,67.6741 244,88.4001 82.089,20.4668 164.0539,31.8418 243.8201,35.9068 9.9749,0.3996 19.9189,0.7983 29.828,1.1919 4.9508,0.1682 9.8949,0.3362 14.8299,0.5041 4.935,0.1861 9.8569,-0.025 14.773,-0.035 19.6582,-0.2322 39.1681,-0.624 58.506,-1.1701 4.836,-0.057 9.6582,-0.4759 14.473,-0.8111 4.813,-0.354 9.615,-0.7117 14.4131,-1.0659 9.5739,-0.7671 19.1179,-1.53 28.63,-2.2949 4.7459,-0.4092 9.4838,-0.8162 14.219,-1.2271 4.727,-0.4031 9.4429,-0.8049 14.1479,-1.5027 9.3969,-1.2861 18.761,-2.5654 28.096,-3.841 9.3049,-1.3526 18.578,-2.6963 27.8171,-4.0384 4.6119,-0.718 9.2208,-1.323 13.7978,-2.1508 4.5751,-0.898 9.1413,-1.7962 13.6961,-2.689 18.214,-3.615 36.2331,-7.3494 54.05,-11.1929 17.755,-4.3222 35.262,-9.1643 52.584,-13.8794 4.323,-1.2009 8.641,-2.3969 12.9472,-3.594 4.3048,-1.198 8.5998,-2.372 12.8318,-3.8317 8.4628,-2.8113 16.898,-5.6114 25.305,-8.4002 8.3572,-2.854 16.6879,-5.6946 24.9839,-8.5249 4.1311,-1.4397 8.2561,-2.875 12.3701,-4.311 4.0841,-1.5459 8.1282,-3.2049 12.171,-4.8069 16.162,-6.4693 32.109,-13.01 47.8319,-19.6121 7.9081,-3.1511 15.531,-7.0461 23.2032,-10.624 7.6208,-3.678 15.2138,-7.342 22.7819,-10.988 7.5069,-3.701 14.9871,-7.388 22.44,-11.062 7.3769,-3.826 14.582,-7.9661 21.793,-11.95 14.385,-8.0649 28.5839,-16.074 42.479,-24.271 13.684,-8.687 27.143,-17.395 40.373,-26.1079 6.584,-4.416 13.2319,-8.594 19.605,-13.2122 6.3291,-4.6579 12.6369,-9.2949 18.916,-13.9189 12.459,-9.346 24.854,-18.398 36.7209,-27.969 11.752,-9.7891 23.273,-19.563 34.5721,-29.3091 5.614,-4.9348 11.322,-9.6108 16.695,-14.7319 5.3479,-5.1211 10.677,-10.221 15.98,-15.2991 10.5249,-10.207 20.908,-20.261 30.9241,-30.4839 9.7788,-10.563 19.3418,-21.0781 28.6858,-31.5371 74.6721,-83.9509 128.092,-173.6379 164.4302,-260.3459 36.383,-86.857 55.5439,-171.104 62.3459,-248.2659 1.5989,-19.3671 3.0989,-37.9321 2.9089,-56.5781 0.056,-9.2421 0.019,-18.326 -0.1049,-27.252 -0.084,-4.4501 -0.167,-8.873 -0.251,-13.2731 -0.094,-4.3789 -0.5249,-8.8688 -0.8049,-13.2379 -1.273,-17.5529 -2.8602,-34.467 -4.7151,-50.7491 -2.4749,-16.5468 -5.2849,-32.4909 -8.261,-47.789 -2.6919,-15.1958 -6.9561,-30.2679 -10.8321,-44.5218 -1.987,-7.1461 -4.0158,-14.1401 -6.0749,-20.9801 -1.053,-3.4299 -2.0161,-6.7888 -3.1641,-10.1659 -1.2109,-3.379 -2.4128,-6.7352 -3.6089,-10.0641 -4.8381,-13.271 -9.77,-25.938 -14.758,-38.0279 -1.26,-3.0091 -2.512,-5.9931 -3.7539,-8.9601 -1.4002,-2.9718 -2.7891,-5.922 -4.1712,-8.851 -2.7978,-5.833 -5.5998,-11.5219 -8.4028,-17.0711 -5.6282,-11.1049 -11.1892,-21.6369 -16.854,-31.6719 -6.103,-10.127 -12.165,-19.721 -18.1521,-28.811 -6.0239,-9.096 -11.823,-17.6609 -17.811,-25.8051 -6.2681,-8.1909 -12.417,-15.903 -18.429,-23.1699 -12.053,-14.537 -23.2419,-27.252 -34.9819,-38.584 -11.418,-11.2888 -22.0371,-21.02 -31.698,-29.4041 -4.7271,-4.1839 -9.646,-8.0739 -14.2332,-11.6429 -4.5798,-3.572 -8.8879,-6.8261 -12.9099,-9.7889 -8.04,-5.9261 -14.925,-10.6891 -20.531,-14.4361 -11.2109,-7.469 -17.301,-10.956 -17.301,-10.956 30.1951,11.562 60.9509,26.6059 91.3201,45.4442 14.7109,9.3728 29.3979,19.6948 44.0039,31.0036 7.2949,5.6481 14.611,11.5533 21.822,17.6892 6.9199,6.102 13.8091,12.4469 20.6579,19.043 6.8492,6.5941 13.656,13.4361 20.4202,20.521 6.6948,7.075 13.6838,14.457 19.8049,21.9451 12.5779,15.0368 24.92,31.053 36.969,48.027 3.0999,4.2619 5.7891,8.5 8.5879,12.8259 2.7752,4.3202 5.5301,8.699 8.2671,13.137 5.469,8.876 10.8511,17.984 16.1399,27.32 2.634,4.6641 5.2991,9.404 7.8362,14.1681 2.3569,4.7609 4.7268,9.5469 7.105,14.3511 4.686,9.6808 9.2678,19.5769 13.738,29.6867 35.1899,80.5971 56.7119,173.3051 61.501,269.8279 5.0068,96.4842 -6.7451,196.4602 -32.198,290.6153 -25.2652,94.2519 -64.0882,182.4448 -108.1502,258.113 -21.7238,38.2119 -45.5039,72.3608 -68.3259,104.1528 -23.6951,30.6551 -46.2151,59.3601 -68.4199,82.8792 -10.9502,11.9848 -21.4631,23.1838 -31.4202,33.5378 -10.2048,9.959 -19.854,19.0772 -28.7978,27.3421 -8.95,8.26 -17.2022,15.6538 -24.646,22.1269 -3.6931,3.2923 -7.283,6.178 -10.6741,8.7991 -3.3789,2.646 -6.5371,5.064 -9.4629,7.251 -23.479,17.497 -31.6782,20.2182 -20,5.155 11.617,-15.1001 19.0178,-28.1841 23.2068,-39.51 4.031,-11.596 4.9231,-21.3201 3.6001,-29.479 -2.6699,-16.3111 -14.1211,-26.3889 -27.7891,-32.732 -13.5959,-6.1579 -29.926,-9.447 -42.5239,-10.802 -12.646,-1.4189 -21.813,-1.205 -21.813,-1.205 -6.811,7.7141 -13.7771,15.3969 -20.886,23.0439 -7.2671,7.3262 -14.6889,14.6001 -22.2509,21.8421 -7.5601,7.238 -15.262,14.4379 -23.0982,21.5939 -3.928,3.553 -7.844,7.1951 -11.875,10.639 -4.0808,3.363 -8.1738,6.7331 -12.271,10.1049 -16.5188,13.3575 -33.4399,26.7991 -51.0068,39.4793 -17.7212,12.2678 -35.9002,24.2988 -54.4661,36.063 -74.7211,45.7148 -157.259,82.1308 -242.482,108.25 -21.335,6.22 -42.792,12.3586 -64.329,17.751 -21.5659,4.8447 -43.199,9.3759 -64.833,13.5969 -5.4071,1 -10.819,2.2209 -16.221,2.9797 -5.409,0.8023 -10.811,1.6045 -16.202,2.4043 -10.801,1.565 -21.5959,3.053 -32.3732,4.469 -10.7747,1.3953 -21.5398,2.814 -32.2747,3.979 -10.7581,0.8201 -21.4731,1.634 -32.1381,2.447 -10.704,0.68 -21.3558,1.3599 -31.96,2.034 -5.311,0.2881 -10.6079,0.581 -15.895,0.8659 -5.2892,0.2461 -10.572,0.1951 -15.843,0.2862 -21.085,0.208 -41.995,0.165 -62.667,-0.1121 l -7.738,-0.1301 -7.705,-0.407 c -5.133,-0.2949 -10.246,-0.5869 -15.342,-0.875 -10.2019,-0.668 -20.3339,-1.3298 -30.3911,-1.9839 -10.058,-0.7297 -20.0509,-1.438 -29.9529,-2.3201 -9.873,-1.2048 -19.666,-2.3999 -29.376,-3.5878 -9.709,-1.2881 -19.337,-2.564 -28.877,-3.8321 -4.769,-0.6679 -9.5159,-1.332 -14.239,-1.9958 -4.7249,-0.6621 -9.429,-1.3262 -14.063,-2.2461 -18.59,-3.4121 -36.8079,-6.9431 -54.602,-10.5591 -4.447,-0.9158 -8.87,-1.8259 -13.267,-2.73 -4.402,-0.8811 -8.761,-1.8349 -13.053,-2.959 -8.603,-2.1872 -17.103,-4.342 -25.494,-6.4731 -16.768,-4.354 -33.103,-8.6699 -48.901,-13.1309 -15.654,-4.9123 -30.825,-9.8188 -45.476,-14.676 -7.315,-2.4541 -14.511,-4.8701 -21.579,-7.2419 -3.523,-1.2251 -7.0449,-2.3492 -10.472,-3.6368 -3.4169,-1.3144 -6.801,-2.6152 -10.155,-3.9084 -13.406,-5.1829 -26.268,-10.2698 -38.55803,-15.22 -12.25299,-5.0278 -24.10095,-9.54 -34.97198,-14.739 -21.90693,-10.0369 -41.45496,-19.3137 -58.44404,-27.5588 -16.85687,-8.51 -30.93798,-16.4383 -42.47686,-22.709 -11.50403,-6.3418 -20.32001,-11.3162 -26.26306,-14.699 -5.97004,-3.3352 -8.95905,-5.27 -8.95905,-5.27 22.02002,9.1169 43.35803,16.063 63.48303,21.615 5.03699,1.3789 10.00604,2.6582 14.90198,3.844 4.92102,1.1408 9.85699,2.0139 14.67102,2.895 9.64697,1.7209 18.992,3.1042 28.01599,4.1809 9.02509,1.0767 17.72699,1.854 26.09192,2.3699 8.36505,0.5119 16.36206,0.8381 24.18207,0.5491 15.55801,-0.3787 29.69401,-1.5799 42.33901,-3.2581 12.646,-1.6738 23.8,-3.8259 33.4129,-6.0999 9.6521,-2.3691 17.8652,-5.1269 24.4222,-7.447 13.1369,-4.7229 19.9399,-8.3511 19.9399,-8.3511 -33.033,-3.5239 -64.9239,-9.6738 -96.616,-15.6826 -3.958,-0.7712 -7.908,-1.5412 -11.849,-2.3093 -3.9441,-0.772 -7.783,-1.7788 -11.66799,-2.6699 -7.75599,-1.8731 -15.47504,-3.7361 -23.15503,-5.5943 -15.35895,-3.8259 -30.69599,-7.571 -45.73798,-11.7517 -14.896,-4.4651 -29.67401,-9.0271 -44.323,-13.674 -7.328,-2.3558 -14.61999,-4.698 -21.87597,-7.0332 -7.31501,-2.2649 -14.27802,-5.1119 -21.38404,-7.6719 -28.182,-10.646 -56.24902,-20.916 -82.62597,-33.1861 -106.82001,-47.144 -199.46503,-104.864 -278.16501,-165.7768 -9.83801,-7.6282 -19.53098,-15.24 -29.07498,-22.8262 -9.48603,-7.646 -18.44101,-15.656 -27.46805,-23.4228 -17.85797,-15.7141 -35.61798,-30.864 -51.62299,-46.9351 -8.09598,-7.9761 -16.08999,-15.8479 -23.98095,-23.6189 -3.91904,-3.9221 -7.81305,-7.8191 -11.68204,-11.6951 -1.927,-1.9431 -3.849,-3.885 -5.76401,-5.8161 -1.84299,-1.9939 -3.68198,-3.9839 -5.51398,-5.9668 -14.625,-15.8911 -28.721,-31.5552 -42.30102,-46.949 -6.913,-7.604 -13.10498,-15.594 -19.43399,-23.3171 -6.241,-7.7979 -12.39299,-15.4871 -18.457,-23.065 -5.997,-7.646 -11.905,-15.1799 -17.728,-22.6049 -5.59801,-7.5901 -10.97301,-15.1741 -16.29201,-22.6341 -10.614,-14.935 -20.77298,-29.531 -30.49699,-43.761 -9.29498,-14.5041 -18.084,-28.6931 -26.521,-42.4609 -17.238,-27.3262 -31.135,-54.074 -44.226,-78.792 -3.22701,-6.2041 -6.392,-12.292 -9.492,-18.2581 -3.047996,-5.9931 -5.726997,-12.021 -8.486,-17.863 -5.443993,-11.718 -10.577003,-22.991 -15.418999,-33.8169 -2.402,-5.4191 -4.751999,-10.7211 -7.047004,-15.8961 -2.275994,-5.189 -4.530999,-10.24 -6.434998,-15.302 C 60.514004,2006.75 56.826,1997.147 53.379002,1988.0051 49.987999,1978.843 46.776001,1970.1689 43.741997,1961.974 40.810001,1953.744 37.862,1946.073 35.674,1938.657 26.452999,1909.1661 20.294001,1887.228 16.377001,1872.6971 14.335,1865.458 13.256,1859.942 12.444,1856.312 c -0.768,-3.646 -1.146,-5.444 -1.146,-5.444 2.083999,4.3478 4.09,8.3938 6.021,12.158 1.938,3.7581 4.011,7.168 5.879999,10.3491 3.795,6.3439 7.256001,11.6229 10.402003,15.9588 6.292999,8.6682 11.317997,13.5713 15.275997,15.6641 7.924,4.172 11.580002,-2.863 12.976997,-13.922 1.394005,-11.0678 0.561005,-26.184 -0.574993,-38.5 -0.811004,-12.4219 -1.915005,-22.088 -1.915005,-22.088 -3.139,-10.891 -6.246002,-21.6668 -9.316997,-32.326 -1.499001,-5.341 -2.989002,-10.652 -4.470997,-15.9339 -1.488003,-5.2832 -2.947002,-10.5411 -4.118004,-15.8403 -4.973999,-21.1168 -9.642998,-41.8277 -14.031,-62.1048 -2.350998,-10.111 -3.929001,-20.242 -5.666002,-30.227 C 20.101,1664.0619 18.461,1654.1801 16.84,1644.413 15.304,1634.636 13.787001,1624.9721 12.285,1615.4219 11.043,1605.844 10.069,1596.351 9.0290003,1586.981 7.0040002,1568.2321 5.177,1549.928 3.55,1532.064 c -0.9949999,-17.888 -1.823,-35.3421 -2.502,-52.3511 -0.307,-8.4998 -0.61000001,-16.895 -0.91,-25.1809 -0.309,-8.2821 -0.001,-16.4429 0.012,-24.5029 0.18099999,-16.1139 0.474,-31.7951 0.865,-47.0401 0.1599999,-15.242 1.4050001,-30.051 2.4670001,-44.436 1.0880001,-14.382 2.2460001,-28.3419 3.4549997,-41.876 0.9860001,-13.531 3.0750002,-26.661 4.7540002,-39.376 1.767999,-12.714 3.561,-25.016 5.368,-36.916 0.926001,-5.944 1.834999,-11.792 2.731001,-17.547 1.137998,-5.733 2.257999,-11.373 3.357,-16.919 2.297999,-11.056 4.520998,-21.749 6.668999,-32.081 2.266001,-10.282 4.449999,-20.208 6.560999,-29.786 2.560001,-9.491 5.026001,-18.634 7.402,-27.438 4.857003,-17.568 9.526001,-33.696 13.961003,-48.472 4.851001,-14.696 9.644001,-28.016 13.998996,-40.1029 4.384003,-12.08408 8.452004,-22.91007 12.179001,-32.57102 3.798004,-9.64307 7.710999,-18.0061 10.952004,-25.36707 C 108.109,920.74097 114.887,908.42999 114.887,908.42999 c -3.657,14.37494 -7.093,28.43799 -10.32099,42.18695 -1.58101,6.87903 -3.14301,13.67414 -4.68702,20.38507 -1.562988,6.70502 -2.569992,13.45301 -3.810989,20.05597 -2.349999,13.23302 -4.515999,26.15212 -6.509003,38.75212 -0.966995,6.3009 -1.921997,12.5219 -2.864998,18.662 -0.952003,6.1329 -1.413002,12.2698 -2.084999,18.2829 -2.375,24.103 -4.511001,46.895 -5.516998,68.5129 -0.581001,21.6711 -0.716004,42.0971 -0.491005,61.3111 0.085,4.807 0.075,9.5281 0.299004,14.1889 0.294998,4.6611 0.586998,9.2491 0.875,13.7671 0.617996,9.031 1.305999,17.7701 2.053001,26.217 0.746994,8.447 1.552994,16.608 2.409996,24.4851 0.446999,3.9339 0.889,7.8039 1.321999,11.6079 0.497001,3.801 1.172004,7.5281 1.763999,11.192 2.449997,14.646 5.026009,28.208 7.664994,40.746 1.320015,6.27 2.654007,12.285 3.999008,18.056 1.323001,5.767 2.661001,11.288 4.301011,16.574 6.22899,21.1439 12.33299,38.5009 17.934,52.659 2.83199,7.0772 5.41199,13.357 8.058,18.9119 2.73399,5.5571 5.276,10.3862 7.58799,14.5631 9.263,16.689 14.808,23.01 14.80899,23.01 -3.459,-12.037 -6.87599,-24.634 -10.23599,-37.7419 -3.006,-13.109 -5.643,-26.7331 -8.35001,-40.8322 -1.29299,-7.0679 -2.60398,-14.2359 -3.93299,-21.5008 -1.221,-7.2791 -2.72599,-14.6711 -3.533,-22.1711 -1.88699,-15.003 -3.654,-30.435 -5.291,-46.248 -0.77601,-7.923 -1.562,-15.926 -2.354,-24.004 -0.399,-8.105 -0.80399,-16.289 -1.211,-24.543 -0.724,-16.535 -1.295,-33.4039 -1.705,-50.5599 0.075,-17.125 0.612,-34.5191 1.162,-52.156 0.33499,-8.8261 0.67399,-17.6991 1.012,-26.6181 0.758,-8.891 1.517,-17.829 2.281,-26.8039 1.697,-17.9511 3.23,-36.146 5.567,-54.3451 2.65201,-18.146 5.486,-36.417 8.49399,-54.761 l 2.289,-13.76706 c 0.808,-4.58691 1.85701,-9.11792 2.79201,-13.68292 1.968,-9.11798 3.937,-18.24603 5.907,-27.37903 4.043,-18.26098 7.987,-36.61798 13.267,-54.57501 5.011,-18.03699 10.112,-36.06799 15.45099,-53.96594 5.917,-17.68402 11.96103,-35.28601 18.11001,-52.75202 5.875,-17.58105 13.07,-34.5 19.94699,-51.41003 3.50103,-8.43201 6.989,-16.83008 10.459,-25.1839 1.78099,-4.15814 3.43802,-8.36609 5.331,-12.44409 1.91101,-4.07196 3.817,-8.13098 5.71802,-12.17999 7.63499,-16.185 15.307,-32.14899 22.98098,-47.84503 l 2.885,-5.87 3.082,-5.73297 c 2.061,-3.81104 4.11502,-7.60498 6.16,-11.388 4.13202,-7.54602 8.23102,-15.034 12.29501,-22.45703 4.115,-7.401 8.19401,-14.73596 12.236,-22.00501 4.05499,-7.26098 8.543,-14.15997 12.76599,-21.13196 8.55902,-13.86999 17.03302,-27.40704 25.38101,-40.57101 4.065,-6.659 8.64301,-12.84503 12.91101,-19.12598 4.34799,-6.22903 8.63901,-12.37301 12.86798,-18.42999 4.26398,-6.03403 8.46601,-11.98303 12.603,-17.83902 4.15802,-5.841 8.19601,-11.63504 12.52502,-17.056 8.54999,-10.93204 16.80902,-21.49097 24.75098,-31.64499 8.06302,-10.05801 15.52505,-19.94302 23.41403,-28.74402 15.46399,-17.85998 29.61801,-33.897 42.14099,-47.89199 13.01001,-13.551 24.31702,-25.13801 33.599,-34.57102 9.33197,-9.38098 16.41901,-16.82599 21.57898,-21.522 5.10999,-4.746 7.79602,-7.23899 7.79602,-7.23899 0,0 -0.20703,5.14701 -0.51501,12.86799 -0.357,7.63201 -0.35199,18.18301 -0.32599,28.57601 0.051,20.84601 0.80401,41.49399 0.80401,41.49399 48.23096,-48.392 98.77399,-88.768 147.46296,-124.34598 12.419,-8.60801 24.68408,-16.98701 36.77502,-25.137 6.06897,-4.043 11.99799,-8.16001 18.06195,-11.98601 6.12903,-3.72901 12.20502,-7.424 18.23004,-11.08901 12.06201,-7.28399 23.93903,-14.35699 35.62403,-21.22 5.77496,-3.53 11.828,-6.53399 17.682,-9.70399 5.89197,-3.105 11.72693,-6.18199 17.50794,-9.22901 C 918.716,83.566002 1002.337,54.705002 1070.4041,35.993 c 17.1469,-4.424 33.2619,-8.434002 48.3259,-12.07 7.4859,-1.942001 14.921,-3.219 22.013,-4.630001 7.099,-1.345998 13.938,-2.642999 20.516,-3.889999 13.1501,-2.412 25.188,-4.669 36.222,-6.4220001 11.103,-1.4080004 21.137,-2.6799998 30.0839,-3.815 C 1245.436,3.0469999 1258.882,1.505 1267.941,0.755 1277.044,0.25400001 1281.661,0 1281.661,0 1184.387,18.09 1096.984,48.730999 1023.4269,84.167999 1004.778,92.533005 987.51703,102.293 970.71606,111.441 c -8.34503,4.663 -16.54803,9.249 -24.60607,13.752 -7.88495,4.79099 -15.52503,9.669 -23.02295,14.425 -7.45502,4.813 -14.76404,9.533 -21.92402,14.15499 -7.12304,4.67101 -14.12701,9.17601 -20.64501,14.101 -13.18201,9.61702 -25.64203,18.94301 -37.36799,27.91501 -2.92401,2.24899 -5.80902,4.46898 -8.65704,6.661 -2.82098,2.22398 -5.492,4.578 -8.17493,6.82202 -5.31207,4.55098 -10.47503,8.97499 -15.48407,13.26898 -9.96398,8.634 -19.208,16.826 -27.73291,24.52499 -16.5531,16.058 -30.23504,30.13201 -41.20208,41.64 -2.724,2.89902 -5.34302,5.55902 -7.66602,8.207 -2.297,2.67402 -4.43896,5.17102 -6.42798,7.48401 -3.91705,4.667 -7.22198,8.598 -9.88501,11.76899 -5.21899,6.41302 -7.92895,9.74401 -7.92895,9.74401 7.95398,-7.384 16.91797,-15.00799 26.49597,-22.67599 9.70203,-7.51901 20.35699,-14.67401 31.06201,-21.89502 5.37506,-3.58298 10.80499,-7.13199 16.24194,-10.62299 5.45203,-3.47201 10.82197,-7.00299 16.44703,-10.065 11.11706,-6.30299 22.06305,-12.30298 32.44799,-17.86 20.56104,-11.425 39.83405,-19.66701 53.41803,-25.82001 13.64002,-6.06799 21.95002,-9.565 21.95002,-9.565 -4.16297,5.62601 -15.891,15.627 -33.04993,28.93401 -4.29907,3.30799 -8.91614,6.85899 -13.82306,10.63301 -4.80804,3.90599 -9.89703,8.04199 -15.24603,12.38899 -10.73603,8.57901 -22.50098,17.983 -35.07599,28.03299 -12.19904,10.46902 -25.18201,21.61001 -38.73499,33.241 -3.37603,2.90802 -6.78894,5.846 -10.23303,8.81302 -3.32898,3.1 -6.68896,6.22698 -10.078,9.38198 -6.76697,6.306 -13.64301,12.71601 -20.60498,19.20505 -3.47602,3.24393 -6.969,6.50897 -10.48303,9.79096 l -5.27796,4.93301 -5.10406,5.17099 c -6.79792,6.922 -13.65393,13.89999 -20.5409,20.91 -6.85504,7.03403 -13.81506,14.01895 -20.61206,21.16697 -6.59002,7.35003 -13.18701,14.70504 -19.76599,22.04403 -6.55102,7.34503 -13.08502,14.672 -19.58099,21.953 -6.40705,7.35401 -12.37903,15.01304 -18.48401,22.40998 -12.02503,14.96304 -24.22699,29.24603 -34.73102,44.04803 -5.37396,7.29199 -10.64899,14.45197 -15.80499,21.44898 -2.568,3.5 -5.107,6.961 -7.61298,10.37701 -2.51904,3.40497 -4.98901,6.776 -7.229,10.24701 -9.13904,13.72498 -17.75202,26.66498 -25.68604,38.58301 -8.10797,11.77997 -14.48199,23.24396 -20.52099,33.10596 -5.92701,9.92804 -11.081,18.565 -15.318,25.66601 -4.33297,7.03803 -7.264,12.83502 -9.384,16.70801 -2.09299,3.89001 -3.207,5.95703 -3.207,5.95703 0,0 2.978,-3.43207 8.496,-10.14905 2.68201,-3.40698 6.33103,-7.42499 10.52002,-12.26397 4.15103,-4.84803 8.95398,-10.45801 14.38196,-16.80103 5.37302,-6.35797 11.30301,-13.46698 17.73904,-21.30396 6.56202,-7.74902 14.04297,-15.94305 21.80097,-24.966 7.875,-8.93805 15.94903,-18.77899 24.98303,-28.89099 9.18396,-10 18.83399,-20.64801 28.90698,-31.927 C 639.664,501.70596 689.88696,449.03101 751.211,393.21301 812.51404,337.41101 884.90698,278.396 969.70599,221.53998 990.61401,206.80499 1012.88,194.431 1034.824,181.689 c 10.905,-6.517 22.339,-11.909 33.578,-17.603 11.28,-5.61501 22.5639,-11.131 33.834,-16.541 11.455,-4.98 22.9379,-9.758 34.365,-14.491 5.7251,-2.34199 11.434,-4.674 17.1211,-7.002 l 8.5389,-3.442 8.649,-3.05601 c 11.528,-4.02299 23.005,-7.94899 34.412,-11.77599 5.708,-1.896 11.395,-3.784 17.0561,-5.66499 5.6909,-1.78301 11.4489,-3.261013 17.1379,-4.870014 90.999,-26.191993 178.444,-37.396995 252.649,-40.453995 18.595,-0.422 36.363,-0.694 53.2089,-0.853 4.2111,-0.110001 8.3691,0.031 12.4721,0.212997 4.0969,0.162003 8.137,0.320004 12.121,0.478001 7.9541,0.347 15.6741,0.684002 23.152,1.010002 7.46,0.364994 14.677,0.718998 21.6439,1.060997 6.9532,0.363003 13.6481,1.245003 20.0701,1.825996 12.814,1.353005 24.5748,2.592007 35.188,3.711007 5.2891,0.592002 10.2911,1.152 15,1.679 4.689,0.752999 9.0861,1.459 13.1738,2.114998 8.1552,1.354004 15.0872,2.502999 20.7013,3.434998 11.1959,1.938003 17.1499,2.967003 17.1499,2.967003 16.0551,4.413002 19.183,8.442001 15.064,11.292 -4.127,2.902 -15.564,5.417007 -28.8729,7.404998 -13.3161,2.037003 -28.5099,3.534005 -40.3539,4.815003 -11.8612,1.671997 -20.3832,2.705009 -20.3832,2.705009 7.876,0.12098 15.8732,0.19899 23.9229,0.73399 8.0443,0.711 16.1521,1.547 24.2711,2.488 8.1209,0.939 16.252,1.98101 24.3479,3.105 4.0431,0.58399 8.0811,1.165 12.1091,1.746 4.0181,0.677 8.002,1.55801 11.975,2.351 15.889,3.267 31.441,6.759 46.2989,10.293 1.854,0.449 3.7011,0.893 5.5373,1.33701 1.8198,0.53099 3.6328,1.05899 5.4318,1.58399 3.594,1.06499 7.1462,2.116 10.648,3.155 6.973,2.13 13.7519,4.202 20.3019,6.202 26.2051,7.64 47.8641,16.862 63.2361,22.771 7.637,3.078 13.702,5.523 17.8599,7.19901 4.1111,1.793 6.2951,2.88699 6.2951,2.88699 12.37,3.172 24.9441,6.578 37.644,10.172 6.3321,1.86299 12.776,3.49701 19.0869,5.675 6.299,2.21002 12.6272,4.42999 18.9792,6.65898 12.6549,4.57404 25.4408,9.04804 38.0188,14.07303 12.4602,5.34 24.8762,10.77998 37.1772,16.26099 6.125,2.80299 12.3259,5.36001 18.2959,8.38701 5.95,3.05299 11.876,6.09098 17.7639,9.11299 11.739,6.11198 23.366,12.05 34.5972,18.21298 11.0159,6.55301 21.8259,12.98602 32.3628,19.25802 5.2361,3.16001 10.4072,6.279 15.4971,9.35401 5.04,3.15698 9.8491,6.543 14.644,9.73099 19.053,12.979 36.949,24.638 51.98,36.59201 7.6001,5.806 14.758,11.27499 21.4099,16.35702 3.311,2.54502 6.498,4.99497 9.5471,7.34097 2.9509,2.48597 5.771,4.86197 8.4529,7.12299 21.2581,18.18298 33.842,28.94702 33.842,28.94702 -44.811,-29.74301 -99.0678,-62.09201 -156.7768,-90.401 -14.5491,-6.798 -29.1702,-13.63 -43.7542,-20.44601 -14.8828,-6.12 -29.7209,-12.224 -44.3999,-18.262 -3.6721,-1.49701 -7.333,-2.99099 -10.9819,-4.479 -3.717,-1.321 -7.4221,-2.63699 -11.115,-3.94899 -7.3791,-2.61499 -14.7051,-5.21101 -21.9631,-7.78301 -7.2478,-2.563 -14.4322,-5.10098 -21.527,-7.61 -7.2109,-2.177 -14.3361,-4.32801 -21.36,-6.449 -7.0221,-2.10401 -13.944,-4.17799 -20.7519,-6.217 -3.403,-1.01698 -6.776,-2.02501 -10.118,-3.02301 -1.6703,-0.49899 -3.3349,-0.99398 -4.9901,-1.487 -1.6778,-0.417 -3.352,-0.82899 -5.013,-1.24099 -13.2889,-3.28099 -26.053,-6.43 -38.1709,-9.42098 -6.0741,-1.41902 -11.904,-3.10002 -17.6951,-4.18001 -5.7792,-1.13 -11.379,-2.22401 -16.786,-3.28102 -10.798,-2.104 -20.823,-4.05899 -29.95,-5.83699 -9.084,-1.96301 -17.445,-2.86799 -24.696,-3.99901 -7.2649,-1.05699 -13.5029,-1.96398 -18.593,-2.705 -10.1679,-1.49199 -15.746,-2.30899 -15.746,-2.30899 9.5652,2.088 18.953,4.259 28.051,6.453 4.5388,1.11701 9.0121,2.21801 13.4091,3.29999 4.3879,1.11202 8.7079,2.12601 12.8509,3.51401 16.6501,5.18602 31.719,10.16499 44.3951,14.47701 3.1619,1.11198 6.212,2.039 9.031,3.179 2.82,1.137 5.4819,2.21099 7.979,3.21598 4.9729,2.04201 9.2728,3.80799 12.8017,5.25602 7.0092,2.957 10.9383,4.61497 10.9383,4.61497 -26.7591,-3.62398 -66.6191,-10.42996 -111.6451,-15.81096 -11.2479,-1.304 -22.813,-2.64502 -34.5641,-4.00604 -5.842,-0.83096 -11.8198,-1.05696 -17.7858,-1.53697 -5.9661,-0.43901 -11.9631,-0.88001 -17.9761,-1.32302 -6,-0.455 -12.016,-0.91099 -18.027,-1.36799 l -9.004,-0.69698 c -2.996,-0.24402 -6.0189,-0.216 -9.0189,-0.33803 -11.9931,-0.36999 -23.9131,-0.73599 -35.6282,-1.09698 -5.8479,-0.16701 -11.6389,-0.43201 -17.3659,-0.52501 -5.729,0.089 -11.395,0.17601 -16.976,0.261 -11.1389,0.15 -21.943,0.29801 -32.279,0.43801 -10.326,-0.10001 -20.1742,0.845 -29.416,1.31999 -9.239,0.546 -17.879,1.05702 -25.789,1.52501 -15.829,0.60998 -28.658,2.49197 -37.581,3.29799 -8.9129,0.918 -13.8901,1.432 -13.8901,1.432 10.5491,0.353 21.4021,0.596 32.5389,0.734 5.5592,-0.062 11.2242,0.47599 16.9381,0.72599 5.7111,0.27901 11.4971,0.56301 17.3521,0.85102 5.842,0.239 11.754,0.48098 17.732,0.72499 5.9729,0.278 12.004,0.25999 18.094,0.89 12.1772,0.97799 24.584,1.89099 37.189,2.74499 6.301,0.48902 12.6639,0.69901 19.0531,1.37601 6.3829,0.705 12.8138,1.41299 19.2889,2.129 12.9439,1.46901 26.094,2.57901 39.3321,4.21599 26.3829,4.12901 53.5069,7.12901 80.5689,12.80902 6.792,1.25599 13.6051,2.51698 20.435,3.78099 3.4129,0.64898 6.848,1.205 10.255,1.92601 l 10.183,2.38199 c 13.6001,3.13501 27.259,6.28599 40.945,9.44099 13.602,3.474 27.096,7.49402 40.674,11.177 6.758,1.94901 13.6091,3.59 20.2889,5.776 6.6773,2.194 13.3521,4.387 20.0161,6.57602 6.6711,2.18 13.3319,4.35898 19.9809,6.53299 l 9.9721,3.24899 9.779,3.70902 c 13.035,4.939 26.0069,9.85498 38.886,14.73798 3.249,1.15503 6.395,2.543 9.538,3.92202 3.146,1.366 6.285,2.72998 9.4219,4.09198 6.2732,2.719 12.5191,5.42701 18.7361,8.12302 6.208,2.71698 12.4409,5.31299 18.5469,8.09299 6.0212,2.957 12.0122,5.897 17.9651,8.82 48.104,22.54197 91.424,48.78397 130.259,73.35401 38.2451,25.5 71.646,50.06103 98.427,72.22699 6.676,5.56799 13.031,10.871 19.043,15.88501 5.997,5.03698 11.7729,9.65402 16.7551,14.436 10.167,9.34796 18.9228,17.396 26.0749,23.97199 3.574,3.294 6.7481,6.22101 9.5,8.75598 2.627,2.659 4.8509,4.909 6.648,6.72705 3.5959,3.63495 5.4839,5.54297 5.4839,5.54297 6.758,8.48303 5.8201,9.59002 0.6001,6.57599 -2.6089,-1.50501 -6.292,-4.04102 -10.615,-7.20099 -2.1521,-1.60303 -4.4751,-3.33502 -6.919,-5.15802 -2.4379,-1.83795 -5.1521,-3.612 -7.833,-5.534 -10.811,-7.60095 -22.521,-16.07495 -31.531,-22.61798 -2.248,-1.63702 -4.332,-3.15399 -6.1909,-4.508 -1.883,-1.328 -3.6152,-2.40802 -5.01,-3.35101 -2.8052,-1.85998 -4.447,-2.94897 -4.447,-2.94897 6.7319,6.04797 13.8479,13.48596 21.8288,21.50299 7.9441,8.05597 16.8172,16.63299 26.0401,26.05096 8.9729,9.66004 18.5249,19.94104 28.522,30.70404 2.4931,2.69599 5.0839,5.357 7.5771,8.15796 2.4358,2.85401 4.895,5.73804 7.377,8.64905 4.978,5.80701 10.0459,11.724 15.1889,17.72998 2.5801,2.99701 5.176,6.01501 7.791,9.05603 2.6431,3.01697 5.2649,6.08398 7.709,9.32794 5.012,6.388 10.0801,12.85004 15.1951,19.36804 5.1208,6.50898 10.2888,13.07502 15.4839,19.67701 4.8889,6.83197 9.8081,13.70196 14.739,20.59301 4.9441,6.88196 9.9031,13.7829 14.863,20.68299 4.897,6.94391 9.333,14.19903 14.022,21.26098 9.2141,14.22699 18.7319,28.16492 26.8379,42.64002 4.2112,7.14306 8.385,14.22699 12.5132,21.22699 2.0678,3.5 4.124,6.98102 6.1679,10.43799 1.876,3.54998 3.742,7.07098 5.5931,10.57092 7.342,14.02808 14.6948,27.53503 21.3789,40.64307 6.268,13.31701 12.2551,26.03503 17.8791,37.98498 1.4138,2.98804 2.802,5.92896 4.1648,8.81702 1.3171,2.91302 2.447,5.841 3.646,8.677 2.3572,5.68903 4.625,11.16504 6.7952,16.39801 4.3139,10.47498 8.355,19.95697 11.728,28.37598 3.0708,8.53399 5.7268,15.91302 7.8999,21.95904 4.366,12.09598 6.8049,18.85698 6.8049,18.85698 -5.165,-12.9939 -10.3508,-26.03801 -15.5378,-39.08098 -5.5991,-12.87304 -11.6231,-25.57196 -17.4002,-38.289 29.354,65.95398 49.6311,130.10008 60.8201,177.68998 1.5281,5.925 2.9839,11.578 4.3631,16.932 1.3479,5.363 2.2238,10.5089 3.2619,15.286 1.969,9.575 3.6699,17.8479 5.064,24.625 1.3999,6.776 2.49,12.056 3.23,15.6401 0.3791,1.792 0.6579,3.1619 0.7751,4.0929 0.1438,0.929 0.2178,1.404 0.2178,1.404 0,0 1.531,9.851 3.8601,24.839 1.178,7.494 2.553,16.27 4.0369,25.739 1.3852,9.484 2.2153,19.73 3.4262,30.043 1.148,10.311 2.3079,20.729 3.4129,30.677 0.6613,9.92 1.288,19.367 1.851,27.777 1.1221,16.7251 2.0789,29.051 2.3409,32.1261 z"
             style="fill:#8e735b;fill-opacity:1;fill-rule:nonzero;stroke:none"
             id="path308" />
        </g>
      </g>
    </g>
    <g
       id="g310"
       transform="matrix(0.60000002,0,0,-0.60000002,37.5,245.0737)">
      <text
         xml:space="preserve"
         transform="translate(1.9268413,150.9624)"
         style="font-variant:normal;font-weight:normal;font-size:160.37px;font-family:WorkSans;-inkscape-font-specification:WorkSans-Regular;writing-mode:lr-tb;fill:#f4f4f4;fill-opacity:1;fill-rule:nonzero;stroke:none"
         id="text314"><tspan
           x="0 93.969437 192.58905 287.19992 382.61261"
           y="0"
           sodipodi:role="line"
           id="tspan312">KUARU</tspan></text>
    </g>
    <path
       d="M -50.985966,-41.736057 H 398.23336 V 414.01132 H -50.985966 Z"
       style="fill:#000000;fill-opacity:0;fill-rule:nonzero;stroke:none"
       id="path316" />
    <path
       d="M 208.49702,14.850252 H 355.07389 V 153.40038 H 208.49702 Z"
       style="fill:#000000;fill-opacity:0;fill-rule:nonzero;stroke:none"
       id="path318"
       inkscape:export-filename="path318.svg"
       inkscape:export-xdpi="96"
       inkscape:export-ydpi="96" />
  </g>
</svg>
